<svg width="226" height="276" fill="none" xmlns="http://www.w3.org/2000/svg"><path d="M75.5 200.5H113M13 38v200a25.003 25.003 0 0 0 25 25h150c6.63 0 12.989-2.634 17.678-7.322A25.004 25.004 0 0 0 213 238V92.275a24.99 24.99 0 0 0-7.525-17.875l-55.5-54.275A25 25 0 0 0 132.5 13H38a25 25 0 0 0-25 25v0Zm62.5 112.5h75-75Z" stroke="#000" stroke-width="25" stroke-linecap="round" stroke-linejoin="round"/><path d="M138 13v50a25.001 25.001 0 0 0 25 25h50" stroke="#000" stroke-width="25" stroke-linejoin="round"/></svg>