{"accessors" : [{"bufferView" : 0, "byteOffset" : 0, "componentType" : 5123, "count" : 6147, "type" : "SCALAR", "max" : [6146], "min" : [0]}, {"bufferView" : 1, "byteOffset" : 0, "componentType" : 5126, "count" : 6147, "type" : "VEC3", "max" : [15.84050178527832, 44.72800827026367, 11.49345588684082], "min" : [-17.124143600463867, 14.370986938476562, -7.412780284881592], "name" : "POSITION"}, {"bufferView" : 1, "byteOffset" : 12, "componentType" : 5126, "count" : 6147, "type" : "VEC3", "max" : [1.0000044107437134, 1.0000044107437134, 1.0000044107437134], "min" : [-1.0000044107437134, -1.0000044107437134, -1.0000044107437134], "name" : "NORMAL"}, {"bufferView" : 1, "byteOffset" : 24, "componentType" : 5126, "count" : 6147, "type" : "VEC2", "max" : [0.9964240789413452, -0], "min" : [0.0035758912563323975, -0.994484007358551], "name" : "TEXCOORD_0"}, {"bufferView" : 0, "byteOffset" : 12296, "componentType" : 5123, "count" : 1965, "type" : "SCALAR", "max" : [1964], "min" : [0]}, {"bufferView" : 2, "byteOffset" : 0, "componentType" : 5126, "count" : 1965, "type" : "VEC3", "max" : [12.76013469696045, 44.72800827026367, 9.6821870803833], "min" : [-14.043777465820312, 21.97899055480957, -7.532425880432129], "name" : "POSITION"}, {"bufferView" : 2, "byteOffset" : 12, "componentType" : 5126, "count" : 1965, "type" : "VEC3", "max" : [1.0000044107437134, 0.9999933242797852, 1.0000044107437134], "min" : [-1.0000044107437134, -1.0000044107437134, -1.0000044107437134], "name" : "NORMAL"}, {"bufferView" : 2, "byteOffset" : 24, "componentType" : 5126, "count" : 1965, "type" : "VEC2", "max" : [1, -0], "min" : [0, -1], "name" : "TEXCOORD_0"}], "asset" : {"generator" : "Aspose.3D 22.1", "version" : "2.0"}, "buffers" : [{"uri" : "data:application/octet-stream;base64,", "byteLength" : 275824}], "bufferViews" : [{"buffer" : 0, "byteOffset" : 0, "byteLength" : 16228, "target" : 34963}, {"buffer" : 0, "byteOffset" : 16232, "byteLength" : 196704, "byteStride" : 32, "target" : 34962}, {"buffer" : 0, "byteOffset" : 212940, "byteLength" : 62880, "byteStride" : 32, "target" : 34962}], "images" : [{"uri" : "data:image/jpeg;base64,"}], "materials" : [{"name" : "", "pbrMetallicRoughness" : {"baseColorFactor" : [0.20000000298023224, 0.20000000298023224, 0.20000000298023224, 1], "metallicFactor" : 0, "roughnessFactor" : 0}, "emissiveFactor" : [1, 1, 1], "alphaMode" : "OPAQUE", "doubleSided" : false}, {"name" : "", "pbrMetallicRoughness" : {"baseColorFactor" : [0.699999988079071, 0.699999988079071, 0.699999988079071, 1], "baseColorTexture" : {"index" : 0, "texCoord" : 0}, "metallicFactor" : 0, "roughnessFactor" : 0}, "emissiveFactor" : [1, 1, 1], "alphaMode" : "OPAQUE", "doubleSided" : false}], "meshes" : [{"primitives" : [{"attributes" : {"POSITION" : 1, "NORMAL" : 2, "TEXCOORD_0" : 3}, "indices" : 0, "material" : 0, "mode" : 4}, {"attributes" : {"POSITION" : 5, "NORMAL" : 6, "TEXCOORD_0" : 7}, "indices" : 4, "material" : 1, "mode" : 4}], "name" : ""}], "nodes" : [{"mesh" : 0, "name" : "M5_Body_top"}], "samplers" : [{"magFilter" : 9729, "minFilter" : 9729, "wrapS" : 33071, "wrapT" : 33071}], "scene" : 0, "scenes" : [{"nodes" : [0]}], "textures" : [{"sampler" : 0, "source" : 0}]}