{"accessors" : [{"bufferView" : 0, "byteOffset" : 0, "componentType" : 5123, "count" : 1506, "type" : "SCALAR", "max" : [1505], "min" : [0]}, {"bufferView" : 1, "byteOffset" : 0, "componentType" : 5126, "count" : 1506, "type" : "VEC3", "max" : [13.206404685974121, 46.473121643066406, 13.313793182373047], "min" : [-13.206404685974121, 20.35591697692871, -11.55206298828125], "name" : "POSITION"}, {"bufferView" : 1, "byteOffset" : 12, "componentType" : 5126, "count" : 1506, "type" : "VEC3", "max" : [1.0000044107437134, 1.0000044107437134, 0.9986136555671692], "min" : [-1.0000044107437134, -1.0000044107437134, -0.9974812269210815], "name" : "NORMAL"}, {"bufferView" : 1, "byteOffset" : 24, "componentType" : 5126, "count" : 1506, "type" : "VEC2", "max" : [1, -0.06268593668937683], "min" : [0, -1], "name" : "TEXCOORD_0"}, {"bufferView" : 1, "byteOffset" : 32, "componentType" : 5126, "count" : 1506, "type" : "VEC2", "max" : [0.9815958142280579, -0.28242993354797363], "min" : [-0.16839599609375, -0.6294594407081604], "name" : "TEXCOORD_1"}, {"bufferView" : 1, "byteOffset" : 40, "componentType" : 5126, "count" : 1506, "type" : "VEC2", "max" : [0.9815958142280579, -0.28242993354797363], "min" : [-0.16839599609375, -0.6294594407081604], "name" : "TEXCOORD_2"}, {"bufferView" : 1, "byteOffset" : 48, "componentType" : 5126, "count" : 1506, "type" : "VEC2", "max" : [0.9815958142280579, -0.28242993354797363], "min" : [-0.16839599609375, -0.6294594407081604], "name" : "TEXCOORD_3"}, {"bufferView" : 1, "byteOffset" : 56, "componentType" : 5126, "count" : 1506, "type" : "VEC2", "max" : [0.7800582647323608, -0.2627352774143219], "min" : [0.21994173526763916, -0.7800582647323608], "name" : "TEXCOORD_4"}, {"bufferView" : 1, "byteOffset" : 64, "componentType" : 5126, "count" : 1506, "type" : "VEC2", "max" : [0.7800582647323608, -0.2627352774143219], "min" : [0.21994173526763916, -0.7800582647323608], "name" : "TEXCOORD_5"}, {"bufferView" : 1, "byteOffset" : 72, "componentType" : 5126, "count" : 1506, "type" : "VEC2", "max" : [0.7800582647323608, -0.2627352774143219], "min" : [0.21994173526763916, -0.7800582647323608], "name" : "TEXCOORD_6"}, {"bufferView" : 0, "byteOffset" : 3012, "componentType" : 5123, "count" : 168, "type" : "SCALAR", "max" : [167], "min" : [0]}, {"bufferView" : 2, "byteOffset" : 0, "componentType" : 5126, "count" : 168, "type" : "VEC3", "max" : [4.9153313636779785, 35.245269775390625, 11.297209739685059], "min" : [-4.9153313636779785, 24.180694580078125, 8.063076972961426], "name" : "POSITION"}, {"bufferView" : 2, "byteOffset" : 12, "componentType" : 5126, "count" : 168, "type" : "VEC3", "max" : [0.11427928507328033, -0.2467353790998459, 0.9690805077552795], "min" : [-0.08726980537176132, -0.5561699867248535, 0.8310737013816833], "name" : "NORMAL"}, {"bufferView" : 2, "byteOffset" : 24, "componentType" : 5126, "count" : 168, "type" : "VEC2", "max" : [0.6277467012405396, -0.2383255660533905], "min" : [0.37225332856178284, -0.5291423201560974], "name" : "TEXCOORD_0"}, {"bufferView" : 2, "byteOffset" : 32, "componentType" : 5126, "count" : 168, "type" : "VEC2", "max" : [0.5949921011924744, -0.3332512378692627], "min" : [0.39979466795921326, -0.4802705645561218], "name" : "TEXCOORD_1"}, {"bufferView" : 2, "byteOffset" : 40, "componentType" : 5126, "count" : 168, "type" : "VEC2", "max" : [0.5949921011924744, -0.3332512378692627], "min" : [0.39979466795921326, -0.4802705645561218], "name" : "TEXCOORD_2"}, {"bufferView" : 2, "byteOffset" : 48, "componentType" : 5126, "count" : 168, "type" : "VEC2", "max" : [0.5949921011924744, -0.3332512378692627], "min" : [0.39979466795921326, -0.4802705645561218], "name" : "TEXCOORD_3"}, {"bufferView" : 2, "byteOffset" : 56, "componentType" : 5126, "count" : 168, "type" : "VEC2", "max" : [0.589097797870636, -0.32953858375549316], "min" : [0.40447890758514404, -0.47228747606277466], "name" : "TEXCOORD_4"}, {"bufferView" : 2, "byteOffset" : 64, "componentType" : 5126, "count" : 168, "type" : "VEC2", "max" : [0.589097797870636, -0.32953858375549316], "min" : [0.40447890758514404, -0.47228747606277466], "name" : "TEXCOORD_5"}, {"bufferView" : 2, "byteOffset" : 72, "componentType" : 5126, "count" : 168, "type" : "VEC2", "max" : [0.589097797870636, -0.32953858375549316], "min" : [0.40447890758514404, -0.47228747606277466], "name" : "TEXCOORD_6"}, {"bufferView" : 0, "byteOffset" : 3348, "componentType" : 5123, "count" : 258, "type" : "SCALAR", "max" : [257], "min" : [0]}, {"bufferView" : 3, "byteOffset" : 0, "componentType" : 5126, "count" : 258, "type" : "VEC3", "max" : [9.830662727355957, 42.89905548095703, 11.5687837600708], "min" : [-9.830662727355957, 23.87969970703125, -7.977994441986084], "name" : "POSITION"}, {"bufferView" : 3, "byteOffset" : 12, "componentType" : 5126, "count" : 258, "type" : "VEC3", "max" : [1.0000044107437134, 1.0000044107437134, 0.9442314505577087], "min" : [-1.0000044107437134, -1.0000044107437134, -0.4590080976486206], "name" : "NORMAL"}, {"bufferView" : 3, "byteOffset" : 24, "componentType" : 5126, "count" : 258, "type" : "VEC2", "max" : [0.929823100566864, -0.0743747353553772], "min" : [0.07017689943313599, -0.929823100566864], "name" : "TEXCOORD_0"}, {"bufferView" : 3, "byteOffset" : 32, "componentType" : 5126, "count" : 258, "type" : "VEC2", "max" : [0.869897186756134, -0.32925182580947876], "min" : [0.13304470479488373, -0.5819693803787231], "name" : "TEXCOORD_1"}, {"bufferView" : 3, "byteOffset" : 40, "componentType" : 5126, "count" : 258, "type" : "VEC2", "max" : [0.869897186756134, -0.32925182580947876], "min" : [0.13304470479488373, -0.5819693803787231], "name" : "TEXCOORD_2"}, {"bufferView" : 3, "byteOffset" : 48, "componentType" : 5126, "count" : 258, "type" : "VEC2", "max" : [0.869897186756134, -0.32925182580947876], "min" : [0.13304470479488373, -0.5819693803787231], "name" : "TEXCOORD_3"}, {"bufferView" : 3, "byteOffset" : 56, "componentType" : 5126, "count" : 258, "type" : "VEC2", "max" : [0.8044850826263428, -0.27071481943130493], "min" : [0.19608676433563232, -0.7186949849128723], "name" : "TEXCOORD_4"}, {"bufferView" : 3, "byteOffset" : 64, "componentType" : 5126, "count" : 258, "type" : "VEC2", "max" : [0.8044850826263428, -0.27071481943130493], "min" : [0.19608676433563232, -0.7186949849128723], "name" : "TEXCOORD_5"}, {"bufferView" : 3, "byteOffset" : 72, "componentType" : 5126, "count" : 258, "type" : "VEC2", "max" : [0.8044850826263428, -0.27071481943130493], "min" : [0.19608676433563232, -0.7186949849128723], "name" : "TEXCOORD_6"}, {"bufferView" : 0, "byteOffset" : 3864, "componentType" : 5123, "count" : 786, "type" : "SCALAR", "max" : [785], "min" : [0]}, {"bufferView" : 4, "byteOffset" : 0, "componentType" : 5126, "count" : 786, "type" : "VEC3", "max" : [16.52512550354004, 48.99578857421875, 9.584273338317871], "min" : [-16.52512550354004, 31.13027000427246, -8.870083808898926], "name" : "POSITION"}, {"bufferView" : 4, "byteOffset" : 12, "componentType" : 5126, "count" : 786, "type" : "VEC3", "max" : [1.0000044107437134, 1.0000044107437134, 0.9865560531616211], "min" : [-1.0000044107437134, -1.0000044107437134, -1.0000044107437134], "name" : "NORMAL"}, {"bufferView" : 4, "byteOffset" : 24, "componentType" : 5126, "count" : 786, "type" : "VEC2", "max" : [1.0000003576278687, -0.07242614030838013], "min" : [-0.016210436820983887, -0.9275738596916199], "name" : "TEXCOORD_0"}, {"bufferView" : 4, "byteOffset" : 32, "componentType" : 5126, "count" : 786, "type" : "VEC2", "max" : [0.9292183518409729, -0.42559295892715454], "min" : [-0.2163284420967102, -0.6629790663719177], "name" : "TEXCOORD_1"}, {"bufferView" : 4, "byteOffset" : 40, "componentType" : 5126, "count" : 786, "type" : "VEC2", "max" : [0.9292183518409729, -0.42559295892715454], "min" : [-0.2163284420967102, -0.6629790663719177], "name" : "TEXCOORD_2"}, {"bufferView" : 4, "byteOffset" : 48, "componentType" : 5126, "count" : 786, "type" : "VEC2", "max" : [0.9292183518409729, -0.42559295892715454], "min" : [-0.2163284420967102, -0.6629790663719177], "name" : "TEXCOORD_3"}, {"bufferView" : 4, "byteOffset" : 56, "componentType" : 5126, "count" : 786, "type" : "VEC2", "max" : [0.8135519027709961, -0.24285250902175903], "min" : [0.1864480972290039, -0.7571475505828857], "name" : "TEXCOORD_4"}, {"bufferView" : 4, "byteOffset" : 64, "componentType" : 5126, "count" : 786, "type" : "VEC2", "max" : [0.8135519027709961, -0.24285250902175903], "min" : [0.1864480972290039, -0.7571475505828857], "name" : "TEXCOORD_5"}, {"bufferView" : 4, "byteOffset" : 72, "componentType" : 5126, "count" : 786, "type" : "VEC2", "max" : [0.8135519027709961, -0.24285250902175903], "min" : [0.1864480972290039, -0.7571475505828857], "name" : "TEXCOORD_6"}, {"bufferView" : 0, "byteOffset" : 5436, "componentType" : 5123, "count" : 126, "type" : "SCALAR", "max" : [125], "min" : [0]}, {"bufferView" : 5, "byteOffset" : 0, "componentType" : 5126, "count" : 126, "type" : "VEC3", "max" : [13.7709379196167, 48.142860412597656, 9.693732261657715], "min" : [-13.7709379196167, 31.971784591674805, -8.017156600952148], "name" : "POSITION"}, {"bufferView" : 5, "byteOffset" : 12, "componentType" : 5126, "count" : 126, "type" : "VEC3", "max" : [0.9997207522392273, 0.9592676758766174, 0.983627438545227], "min" : [-0.9997207522392273, -0.9603391885757446, -0.9592676758766174], "name" : "NORMAL"}, {"bufferView" : 5, "byteOffset" : 24, "componentType" : 5126, "count" : 126, "type" : "VEC2", "max" : [1, -0.14368844032287598], "min" : [-0.0004774928092956543, -0.856311559677124], "name" : "TEXCOORD_0"}, {"bufferView" : 5, "byteOffset" : 32, "componentType" : 5126, "count" : 126, "type" : "VEC2", "max" : [0.8667604923248291, -0.43677449226379395], "min" : [0.13584989309310913, -0.6516458988189697], "name" : "TEXCOORD_1"}, {"bufferView" : 5, "byteOffset" : 40, "componentType" : 5126, "count" : 126, "type" : "VEC2", "max" : [0.8667604923248291, -0.43677449226379395], "min" : [0.13584989309310913, -0.6516458988189697], "name" : "TEXCOORD_2"}, {"bufferView" : 5, "byteOffset" : 48, "componentType" : 5126, "count" : 126, "type" : "VEC2", "max" : [0.8667604923248291, -0.43677449226379395], "min" : [0.13584989309310913, -0.6516458988189697], "name" : "TEXCOORD_3"}, {"bufferView" : 5, "byteOffset" : 56, "componentType" : 5126, "count" : 126, "type" : "VEC2", "max" : [0.7618285417556763, -0.2594102621078491], "min" : [0.23817148804664612, -0.7405897974967957], "name" : "TEXCOORD_4"}, {"bufferView" : 5, "byteOffset" : 64, "componentType" : 5126, "count" : 126, "type" : "VEC2", "max" : [0.7618285417556763, -0.2594102621078491], "min" : [0.23817148804664612, -0.7405897974967957], "name" : "TEXCOORD_5"}, {"bufferView" : 5, "byteOffset" : 72, "componentType" : 5126, "count" : 126, "type" : "VEC2", "max" : [0.7618285417556763, -0.2594102621078491], "min" : [0.23817148804664612, -0.7405897974967957], "name" : "TEXCOORD_6"}], "asset" : {"generator" : "Aspose.3D 22.1", "version" : "2.0"}, "buffers" : [{"uri" : "data:application/octet-stream;base64,", "byteLength" : 233232}], "bufferViews" : [{"buffer" : 0, "byteOffset" : 0, "byteLength" : 5688, "target" : 34963}, {"buffer" : 0, "byteOffset" : 5692, "byteLength" : 120480, "byteStride" : 80, "target" : 34962}, {"buffer" : 0, "byteOffset" : 126176, "byteLength" : 13440, "byteStride" : 80, "target" : 34962}, {"buffer" : 0, "byteOffset" : 139620, "byteLength" : 20640, "byteStride" : 80, "target" : 34962}, {"buffer" : 0, "byteOffset" : 160264, "byteLength" : 62880, "byteStride" : 80, "target" : 34962}, {"buffer" : 0, "byteOffset" : 223148, "byteLength" : 10080, "byteStride" : 80, "target" : 34962}], "images" : [{"uri" : "data:image/jpeg;base64,"}], "materials" : [{"name" : "", "pbrMetallicRoughness" : {"baseColorFactor" : [0.20000000298023224, 0.20000000298023224, 0.20000000298023224, 1], "metallicFactor" : 0, "roughnessFactor" : 0}, "emissiveFactor" : [1, 1, 1], "alphaMode" : "OPAQUE", "doubleSided" : false}, {"name" : "", "pbrMetallicRoughness" : {"baseColorFactor" : [0.20000000298023224, 0.20000000298023224, 0.20000000298023224, 1], "metallicFactor" : 0, "roughnessFactor" : 0}, "emissiveFactor" : [1, 1, 1], "alphaMode" : "OPAQUE", "doubleSided" : false}, {"name" : "", "pbrMetallicRoughness" : {"baseColorFactor" : [0.699999988079071, 0.699999988079071, 0.699999988079071, 1], "baseColorTexture" : {"index" : 0, "texCoord" : 0}, "metallicFactor" : 0, "roughnessFactor" : 0}, "emissiveFactor" : [1, 1, 1], "alphaMode" : "OPAQUE", "doubleSided" : false}, {"name" : "", "pbrMetallicRoughness" : {"baseColorFactor" : [0.20000000298023224, 0.20000000298023224, 0.20000000298023224, 1], "metallicFactor" : 0, "roughnessFactor" : 0}, "emissiveFactor" : [1, 1, 1], "alphaMode" : "OPAQUE", "doubleSided" : false}, {"name" : "", "pbrMetallicRoughness" : {"baseColorFactor" : [0.699999988079071, 0.699999988079071, 0.699999988079071, 1], "baseColorTexture" : {"index" : 0, "texCoord" : 0}, "metallicFactor" : 0, "roughnessFactor" : 0}, "emissiveFactor" : [1, 1, 1], "alphaMode" : "OPAQUE", "doubleSided" : false}], "meshes" : [{"primitives" : [{"attributes" : {"POSITION" : 1, "NORMAL" : 2, "TEXCOORD_0" : 3, "TEXCOORD_1" : 4, "TEXCOORD_2" : 5, "TEXCOORD_3" : 6, "TEXCOORD_4" : 7, "TEXCOORD_5" : 8, "TEXCOORD_6" : 9}, "indices" : 0, "material" : 0, "mode" : 4}, {"attributes" : {"POSITION" : 11, "NORMAL" : 12, "TEXCOORD_0" : 13, "TEXCOORD_1" : 14, "TEXCOORD_2" : 15, "TEXCOORD_3" : 16, "TEXCOORD_4" : 17, "TEXCOORD_5" : 18, "TEXCOORD_6" : 19}, "indices" : 10, "material" : 1, "mode" : 4}, {"attributes" : {"POSITION" : 21, "NORMAL" : 22, "TEXCOORD_0" : 23, "TEXCOORD_1" : 24, "TEXCOORD_2" : 25, "TEXCOORD_3" : 26, "TEXCOORD_4" : 27, "TEXCOORD_5" : 28, "TEXCOORD_6" : 29}, "indices" : 20, "material" : 2, "mode" : 4}], "name" : ""}, {"primitives" : [{"attributes" : {"POSITION" : 31, "NORMAL" : 32, "TEXCOORD_0" : 33, "TEXCOORD_1" : 34, "TEXCOORD_2" : 35, "TEXCOORD_3" : 36, "TEXCOORD_4" : 37, "TEXCOORD_5" : 38, "TEXCOORD_6" : 39}, "indices" : 30, "material" : 3, "mode" : 4}, {"attributes" : {"POSITION" : 41, "NORMAL" : 42, "TEXCOORD_0" : 43, "TEXCOORD_1" : 44, "TEXCOORD_2" : 45, "TEXCOORD_3" : 46, "TEXCOORD_4" : 47, "TEXCOORD_5" : 48, "TEXCOORD_6" : 49}, "indices" : 40, "material" : 4, "mode" : 4}], "name" : "_ncl1_1"}], "nodes" : [{"mesh" : 1, "name" : "M_02_V5_Body_Mid"}, {"children" : [0], "mesh" : 0, "name" : "M2_Body_top"}], "samplers" : [{"magFilter" : 9729, "minFilter" : 9729, "wrapS" : 33071, "wrapT" : 33071}], "scene" : 0, "scenes" : [{"nodes" : [1]}], "textures" : [{"sampler" : 0, "source" : 0}]}