{"accessors" : [{"bufferView" : 0, "byteOffset" : 0, "componentType" : 5123, "count" : 7755, "type" : "SCALAR", "max" : [7754], "min" : [0]}, {"bufferView" : 1, "byteOffset" : 0, "componentType" : 5126, "count" : 7755, "type" : "VEC3", "max" : [13.485918998718262, 46.15986251831055, 13.201815605163574], "min" : [-13.46036148071289, 23.750286102294922, -9.849359512329102], "name" : "POSITION"}, {"bufferView" : 1, "byteOffset" : 12, "componentType" : 5126, "count" : 7755, "type" : "VEC3", "max" : [1.0000044107437134, 1.0000044107437134, 1.0000044107437134], "min" : [-1.0000044107437134, -1.0000044107437134, -1.0000044107437134], "name" : "NORMAL"}, {"bufferView" : 1, "byteOffset" : 24, "componentType" : 5126, "count" : 7755, "type" : "VEC2", "max" : [1, -0.0010537803173065186], "min" : [0, -1], "name" : "TEXCOORD_0"}, {"bufferView" : 1, "byteOffset" : 32, "componentType" : 5126, "count" : 7755, "type" : "VEC2", "max" : [1.075753927230835, -0.32753217220306396], "min" : [0.0023037330247461796, -0.625296950340271], "name" : "TEXCOORD_1"}, {"bufferView" : 1, "byteOffset" : 40, "componentType" : 5126, "count" : 7755, "type" : "VEC2", "max" : [1.075753927230835, -0.32753217220306396], "min" : [0.0023037330247461796, -0.625296950340271], "name" : "TEXCOORD_2"}, {"bufferView" : 1, "byteOffset" : 48, "componentType" : 5126, "count" : 7755, "type" : "VEC2", "max" : [1.075753927230835, -0.32753217220306396], "min" : [0.0023037330247461796, -0.625296950340271], "name" : "TEXCOORD_3"}, {"bufferView" : 1, "byteOffset" : 56, "componentType" : 5126, "count" : 7755, "type" : "VEC2", "max" : [0.8558614253997803, -0.1917063295841217], "min" : [0.14413857460021973, -0.8150157332420349], "name" : "TEXCOORD_4"}, {"bufferView" : 1, "byteOffset" : 64, "componentType" : 5126, "count" : 7755, "type" : "VEC2", "max" : [0.8558614253997803, -0.1917063295841217], "min" : [0.14413857460021973, -0.8150157332420349], "name" : "TEXCOORD_5"}, {"bufferView" : 1, "byteOffset" : 72, "componentType" : 5126, "count" : 7755, "type" : "VEC2", "max" : [0.8558614253997803, -0.1917063295841217], "min" : [0.14413857460021973, -0.8150157332420349], "name" : "TEXCOORD_6"}, {"bufferView" : 0, "byteOffset" : 15512, "componentType" : 5123, "count" : 222, "type" : "SCALAR", "max" : [221], "min" : [0]}, {"bufferView" : 2, "byteOffset" : 0, "componentType" : 5126, "count" : 222, "type" : "VEC3", "max" : [13.485918998718262, 46.15986251831055, 12.100190162658691], "min" : [-13.46036148071289, 23.750286102294922, -8.36156940460205], "name" : "POSITION"}, {"bufferView" : 2, "byteOffset" : 12, "componentType" : 5126, "count" : 222, "type" : "VEC3", "max" : [1.0000044107437134, 1.0000041723251343, 0.9770756363868713], "min" : [-1.0000044107437134, -0.9889020323753357, -0.47604623436927795], "name" : "NORMAL"}, {"bufferView" : 2, "byteOffset" : 24, "componentType" : 5126, "count" : 222, "type" : "VEC2", "max" : [1, -0.11612126231193542], "min" : [0, -0.9354571104049683], "name" : "TEXCOORD_0"}, {"bufferView" : 2, "byteOffset" : 32, "componentType" : 5126, "count" : 222, "type" : "VEC2", "max" : [0.8803911209106445, -0.32753217220306396], "min" : [0.12240926921367645, -0.625296950340271], "name" : "TEXCOORD_1"}, {"bufferView" : 2, "byteOffset" : 40, "componentType" : 5126, "count" : 222, "type" : "VEC2", "max" : [0.8803911209106445, -0.32753217220306396], "min" : [0.12240926921367645, -0.625296950340271], "name" : "TEXCOORD_2"}, {"bufferView" : 2, "byteOffset" : 48, "componentType" : 5126, "count" : 222, "type" : "VEC2", "max" : [0.8803911209106445, -0.32753217220306396], "min" : [0.12240926921367645, -0.625296950340271], "name" : "TEXCOORD_3"}, {"bufferView" : 2, "byteOffset" : 56, "componentType" : 5126, "count" : 222, "type" : "VEC2", "max" : [0.7559959292411804, -0.32398563623428345], "min" : [0.24400407075881958, -0.678071141242981], "name" : "TEXCOORD_4"}, {"bufferView" : 2, "byteOffset" : 64, "componentType" : 5126, "count" : 222, "type" : "VEC2", "max" : [0.7559959292411804, -0.32398563623428345], "min" : [0.24400407075881958, -0.678071141242981], "name" : "TEXCOORD_5"}, {"bufferView" : 2, "byteOffset" : 72, "componentType" : 5126, "count" : 222, "type" : "VEC2", "max" : [0.7559959292411804, -0.32398563623428345], "min" : [0.24400407075881958, -0.678071141242981], "name" : "TEXCOORD_6"}, {"bufferView" : 0, "byteOffset" : 15956, "componentType" : 5123, "count" : 471, "type" : "SCALAR", "max" : [470], "min" : [0]}, {"bufferView" : 3, "byteOffset" : 0, "componentType" : 5126, "count" : 471, "type" : "VEC3", "max" : [11.932145118713379, 38.4036750793457, 12.478156089782715], "min" : [-13.183066368103027, 30.455158233642578, 10.304620742797852], "name" : "POSITION"}, {"bufferView" : 3, "byteOffset" : 12, "componentType" : 5126, "count" : 471, "type" : "VEC3", "max" : [0.32310712337493896, 0.21291324496269226, 0.9770756363868713], "min" : [-0.32310712337493896, 0.20149320363998413, 0.9246680736541748], "name" : "NORMAL"}, {"bufferView" : 3, "byteOffset" : 24, "componentType" : 5126, "count" : 471, "type" : "VEC2", "max" : [0.9423381090164185, -0.34583181142807007], "min" : [0.010290682315826416, -0.6181499361991882], "name" : "TEXCOORD_0"}, {"bufferView" : 3, "byteOffset" : 32, "componentType" : 5126, "count" : 471, "type" : "VEC2", "max" : [0.6411170363426208, -0.416622519493103], "min" : [0.3461996912956238, -0.5222375392913818], "name" : "TEXCOORD_1"}, {"bufferView" : 3, "byteOffset" : 40, "componentType" : 5126, "count" : 471, "type" : "VEC2", "max" : [0.6411170363426208, -0.416622519493103], "min" : [0.3461996912956238, -0.5222375392913818], "name" : "TEXCOORD_2"}, {"bufferView" : 3, "byteOffset" : 48, "componentType" : 5126, "count" : 471, "type" : "VEC2", "max" : [0.6411170363426208, -0.416622519493103], "min" : [0.3461996912956238, -0.5222375392913818], "name" : "TEXCOORD_3"}, {"bufferView" : 3, "byteOffset" : 56, "componentType" : 5126, "count" : 471, "type" : "VEC2", "max" : [0.7208728790283203, -0.41048818826675415], "min" : [0.2492116391658783, -0.5130354762077332], "name" : "TEXCOORD_4"}, {"bufferView" : 3, "byteOffset" : 64, "componentType" : 5126, "count" : 471, "type" : "VEC2", "max" : [0.7208728790283203, -0.41048818826675415], "min" : [0.2492116391658783, -0.5130354762077332], "name" : "TEXCOORD_5"}, {"bufferView" : 3, "byteOffset" : 72, "componentType" : 5126, "count" : 471, "type" : "VEC2", "max" : [0.7208728790283203, -0.41048818826675415], "min" : [0.2492116391658783, -0.5130354762077332], "name" : "TEXCOORD_6"}, {"bufferView" : 0, "byteOffset" : 16900, "componentType" : 5123, "count" : 1044, "type" : "SCALAR", "max" : [1043], "min" : [0]}, {"bufferView" : 4, "byteOffset" : 0, "componentType" : 5126, "count" : 1044, "type" : "VEC3", "max" : [8.47579574584961, 30.077131271362305, 9.298011779785156], "min" : [-8.47579574584961, 20.077131271362305, -6.954471588134766], "name" : "POSITION"}, {"bufferView" : 4, "byteOffset" : 12, "componentType" : 5126, "count" : 1044, "type" : "VEC3", "max" : [1.0000044107437134, 1.0000044107437134, 1.0000044107437134], "min" : [-1.0000044107437134, -1.0000044107437134, -1.0000044107437134], "name" : "NORMAL"}, {"bufferView" : 4, "byteOffset" : 24, "componentType" : 5126, "count" : 1044, "type" : "VEC2", "max" : [0.7728981971740723, -0.22710183262825012], "min" : [0.22710183262825012, -0.7728981971740723], "name" : "TEXCOORD_0"}, {"bufferView" : 4, "byteOffset" : 32, "componentType" : 5126, "count" : 1044, "type" : "VEC2", "max" : [1.0033866167068481, -0.27872559428215027], "min" : [-0.0016742348670959473, -0.4115994870662689], "name" : "TEXCOORD_1"}, {"bufferView" : 4, "byteOffset" : 40, "componentType" : 5126, "count" : 1044, "type" : "VEC2", "max" : [1.0033866167068481, -0.27872559428215027], "min" : [-0.0016742348670959473, -0.4115994870662689], "name" : "TEXCOORD_2"}, {"bufferView" : 4, "byteOffset" : 48, "componentType" : 5126, "count" : 1044, "type" : "VEC2", "max" : [0.7763853073120117, -0.2236146628856659], "min" : [0.2236146628856659, -0.7763853073120117], "name" : "TEXCOORD_3"}, {"bufferView" : 4, "byteOffset" : 56, "componentType" : 5126, "count" : 1044, "type" : "VEC2", "max" : [0.7763853073120117, -0.2236146628856659], "min" : [0.2236146628856659, -0.7763853073120117], "name" : "TEXCOORD_4"}, {"bufferView" : 4, "byteOffset" : 64, "componentType" : 5126, "count" : 1044, "type" : "VEC2", "max" : [0.7763853073120117, -0.2236146628856659], "min" : [0.2236146628856659, -0.7763853073120117], "name" : "TEXCOORD_5"}, {"bufferView" : 4, "byteOffset" : 72, "componentType" : 5126, "count" : 1044, "type" : "VEC2", "max" : [0.7728981971740723, -0.22710183262825012], "min" : [0.22710183262825012, -0.7728981971740723], "name" : "TEXCOORD_6"}], "asset" : {"generator" : "Aspose.3D 22.1", "version" : "2.0"}, "buffers" : [{"uri" : "data:application/octet-stream;base64,", "byteLength" : 778368}], "bufferViews" : [{"buffer" : 0, "byteOffset" : 0, "byteLength" : 18988, "target" : 34963}, {"buffer" : 0, "byteOffset" : 18992, "byteLength" : 620400, "byteStride" : 80, "target" : 34962}, {"buffer" : 0, "byteOffset" : 639396, "byteLength" : 17760, "byteStride" : 80, "target" : 34962}, {"buffer" : 0, "byteOffset" : 657160, "byteLength" : 37680, "byteStride" : 80, "target" : 34962}, {"buffer" : 0, "byteOffset" : 694844, "byteLength" : 83520, "byteStride" : 80, "target" : 34962}], "images" : [{"uri" : "data:image/jpeg;base64,"}], "materials" : [{"name" : "", "pbrMetallicRoughness" : {"baseColorFactor" : [0.20000000298023224, 0.20000000298023224, 0.20000000298023224, 1], "metallicFactor" : 0, "roughnessFactor" : 0}, "emissiveFactor" : [1, 1, 1], "alphaMode" : "OPAQUE", "doubleSided" : false}, {"name" : "", "pbrMetallicRoughness" : {"baseColorFactor" : [0.699999988079071, 0.699999988079071, 0.699999988079071, 1], "baseColorTexture" : {"index" : 0, "texCoord" : 0}, "metallicFactor" : 0, "roughnessFactor" : 0}, "emissiveFactor" : [1, 1, 1], "alphaMode" : "OPAQUE", "doubleSided" : false}, {"name" : "", "pbrMetallicRoughness" : {"baseColorFactor" : [0.20000000298023224, 0.20000000298023224, 0.20000000298023224, 1], "metallicFactor" : 0, "roughnessFactor" : 0}, "emissiveFactor" : [1, 1, 1], "alphaMode" : "OPAQUE", "doubleSided" : false}, {"name" : "", "pbrMetallicRoughness" : {"baseColorFactor" : [0.20000000298023224, 0.20000000298023224, 0.20000000298023224, 1], "metallicFactor" : 0, "roughnessFactor" : 0}, "emissiveFactor" : [1, 1, 1], "alphaMode" : "OPAQUE", "doubleSided" : false}], "meshes" : [{"primitives" : [{"attributes" : {"POSITION" : 1, "NORMAL" : 2, "TEXCOORD_0" : 3, "TEXCOORD_1" : 4, "TEXCOORD_2" : 5, "TEXCOORD_3" : 6, "TEXCOORD_4" : 7, "TEXCOORD_5" : 8, "TEXCOORD_6" : 9}, "indices" : 0, "material" : 0, "mode" : 4}, {"attributes" : {"POSITION" : 11, "NORMAL" : 12, "TEXCOORD_0" : 13, "TEXCOORD_1" : 14, "TEXCOORD_2" : 15, "TEXCOORD_3" : 16, "TEXCOORD_4" : 17, "TEXCOORD_5" : 18, "TEXCOORD_6" : 19}, "indices" : 10, "material" : 1, "mode" : 4}, {"attributes" : {"POSITION" : 21, "NORMAL" : 22, "TEXCOORD_0" : 23, "TEXCOORD_1" : 24, "TEXCOORD_2" : 25, "TEXCOORD_3" : 26, "TEXCOORD_4" : 27, "TEXCOORD_5" : 28, "TEXCOORD_6" : 29}, "indices" : 20, "material" : 2, "mode" : 4}], "name" : ""}, {"primitives" : [{"attributes" : {"POSITION" : 31, "NORMAL" : 32, "TEXCOORD_0" : 33, "TEXCOORD_1" : 34, "TEXCOORD_2" : 35, "TEXCOORD_3" : 36, "TEXCOORD_4" : 37, "TEXCOORD_5" : 38, "TEXCOORD_6" : 39}, "indices" : 30, "material" : 3, "mode" : 4}], "name" : "_ncl1_1"}], "nodes" : [{"mesh" : 1, "name" : "M_01_V5_Body_Mid"}, {"children" : [0], "mesh" : 0, "name" : "M1_Body_top"}], "samplers" : [{"magFilter" : 9729, "minFilter" : 9729, "wrapS" : 33071, "wrapT" : 33071}], "scene" : 0, "scenes" : [{"nodes" : [1]}], "textures" : [{"sampler" : 0, "source" : 0}]}