{"accessors" : [{"bufferView" : 0, "byteOffset" : 0, "componentType" : 5123, "count" : 558, "type" : "SCALAR", "max" : [557], "min" : [0]}, {"bufferView" : 1, "byteOffset" : 0, "componentType" : 5126, "count" : 558, "type" : "VEC3", "max" : [15.818227767944336, 48.3561897277832, 13.800087928771973], "min" : [-15.818046569824219, 22.41693687438965, -11.395774841308594], "name" : "POSITION"}, {"bufferView" : 1, "byteOffset" : 12, "componentType" : 5126, "count" : 558, "type" : "VEC3", "max" : [1.0000044107437134, 0.999996542930603, 1.0000044107437134], "min" : [-1.0000044107437134, -1.0000041723251343, -1.0000044107437134], "name" : "NORMAL"}, {"bufferView" : 1, "byteOffset" : 24, "componentType" : 5126, "count" : 558, "type" : "VEC2", "max" : [1, -0], "min" : [0, -0.9999999403953552], "name" : "TEXCOORD_0"}, {"bufferView" : 1, "byteOffset" : 32, "componentType" : 5126, "count" : 558, "type" : "VEC2", "max" : [1.0070205926895142, -0.30981552600860596], "min" : [0.0021813209168612957, -0.6544805765151978], "name" : "TEXCOORD_1"}, {"bufferView" : 1, "byteOffset" : 40, "componentType" : 5126, "count" : 558, "type" : "VEC2", "max" : [1.0070205926895142, -0.30981552600860596], "min" : [0.0021813209168612957, -0.6544805765151978], "name" : "TEXCOORD_2"}, {"bufferView" : 1, "byteOffset" : 48, "componentType" : 5126, "count" : 558, "type" : "VEC2", "max" : [1.0070205926895142, -0.30981552600860596], "min" : [0.0021813209168612957, -0.6544805765151978], "name" : "TEXCOORD_3"}, {"bufferView" : 1, "byteOffset" : 56, "componentType" : 5126, "count" : 558, "type" : "VEC2", "max" : [0.8983166217803955, -0.2112337350845337], "min" : [0.10168337821960449, -0.8366473913192749], "name" : "TEXCOORD_4"}, {"bufferView" : 1, "byteOffset" : 64, "componentType" : 5126, "count" : 558, "type" : "VEC2", "max" : [0.8983166217803955, -0.2112337350845337], "min" : [0.10168337821960449, -0.8366473913192749], "name" : "TEXCOORD_5"}, {"bufferView" : 1, "byteOffset" : 72, "componentType" : 5126, "count" : 558, "type" : "VEC2", "max" : [0.8983166217803955, -0.2112337350845337], "min" : [0.10168337821960449, -0.8366473913192749], "name" : "TEXCOORD_6"}, {"bufferView" : 0, "byteOffset" : 1116, "componentType" : 5123, "count" : 216, "type" : "SCALAR", "max" : [215], "min" : [0]}, {"bufferView" : 2, "byteOffset" : 0, "componentType" : 5126, "count" : 216, "type" : "VEC3", "max" : [15.818227767944336, 48.3561897277832, 13.800087928771973], "min" : [-15.818046569824219, 22.41693687438965, -11.395774841308594], "name" : "POSITION"}, {"bufferView" : 2, "byteOffset" : 12, "componentType" : 5126, "count" : 216, "type" : "VEC3", "max" : [0.9206809997558594, 0.9995982646942139, 0.9728421568870544], "min" : [-0.9206803441047668, -0.9992461204528809, -0.9985129833221436], "name" : "NORMAL"}, {"bufferView" : 2, "byteOffset" : 24, "componentType" : 5126, "count" : 216, "type" : "VEC2", "max" : [1, -0], "min" : [0, -0.9108473062515259], "name" : "TEXCOORD_0"}, {"bufferView" : 2, "byteOffset" : 32, "componentType" : 5126, "count" : 216, "type" : "VEC2", "max" : [1.0028276443481445, -0.30981552600860596], "min" : [0.0021813209168612957, -0.6544805765151978], "name" : "TEXCOORD_1"}, {"bufferView" : 2, "byteOffset" : 40, "componentType" : 5126, "count" : 216, "type" : "VEC2", "max" : [1.0028276443481445, -0.30981552600860596], "min" : [0.0021813209168612957, -0.6544805765151978], "name" : "TEXCOORD_2"}, {"bufferView" : 2, "byteOffset" : 48, "componentType" : 5126, "count" : 216, "type" : "VEC2", "max" : [1.0028276443481445, -0.30981552600860596], "min" : [0.0021813209168612957, -0.6544805765151978], "name" : "TEXCOORD_3"}, {"bufferView" : 2, "byteOffset" : 56, "componentType" : 5126, "count" : 216, "type" : "VEC2", "max" : [0.8002730011940002, -0.30678361654281616], "min" : [0.19972699880599976, -0.8366473913192749], "name" : "TEXCOORD_4"}, {"bufferView" : 2, "byteOffset" : 64, "componentType" : 5126, "count" : 216, "type" : "VEC2", "max" : [0.8002730011940002, -0.30678361654281616], "min" : [0.19972699880599976, -0.8366473913192749], "name" : "TEXCOORD_5"}, {"bufferView" : 2, "byteOffset" : 72, "componentType" : 5126, "count" : 216, "type" : "VEC2", "max" : [0.8002730011940002, -0.30678361654281616], "min" : [0.19972699880599976, -0.8366473913192749], "name" : "TEXCOORD_6"}, {"bufferView" : 0, "byteOffset" : 1548, "componentType" : 5123, "count" : 1428, "type" : "SCALAR", "max" : [1427], "min" : [0]}, {"bufferView" : 3, "byteOffset" : 0, "componentType" : 5126, "count" : 1428, "type" : "VEC3", "max" : [11.717949867248535, 37.67111587524414, 12.181943893432617], "min" : [-11.71795654296875, 16.928756713867188, -9.039288520812988], "name" : "POSITION"}, {"bufferView" : 3, "byteOffset" : 12, "componentType" : 5126, "count" : 1428, "type" : "VEC3", "max" : [1.0000044107437134, 1.0000044107437134, 1.0000044107437134], "min" : [-1.0000044107437134, -1.0000044107437134, -1.0000044107437134], "name" : "NORMAL"}, {"bufferView" : 3, "byteOffset" : 24, "componentType" : 5126, "count" : 1428, "type" : "VEC2", "max" : [1, -0], "min" : [0, -1], "name" : "TEXCOORD_0"}, {"bufferView" : 3, "byteOffset" : 32, "componentType" : 5126, "count" : 1428, "type" : "VEC2", "max" : [1.0043517351150513, -0.23689192533493042], "min" : [0.0026891075540333986, -0.5125036835670471], "name" : "TEXCOORD_1"}, {"bufferView" : 3, "byteOffset" : 40, "componentType" : 5126, "count" : 1428, "type" : "VEC2", "max" : [1.0043517351150513, -0.23689192533493042], "min" : [0.0026891075540333986, -0.5125036835670471], "name" : "TEXCOORD_2"}, {"bufferView" : 3, "byteOffset" : 48, "componentType" : 5126, "count" : 1428, "type" : "VEC2", "max" : [1.0043517351150513, -0.23689192533493042], "min" : [0.0026891075540333986, -0.5125036835670471], "name" : "TEXCOORD_3"}, {"bufferView" : 3, "byteOffset" : 56, "componentType" : 5126, "count" : 1428, "type" : "VEC2", "max" : [0.7873213887214661, -0.23597818613052368], "min" : [0.21267861127853394, -0.8336217403411865], "name" : "TEXCOORD_4"}, {"bufferView" : 3, "byteOffset" : 64, "componentType" : 5126, "count" : 1428, "type" : "VEC2", "max" : [0.7873213887214661, -0.23597818613052368], "min" : [0.21267861127853394, -0.8336217403411865], "name" : "TEXCOORD_5"}, {"bufferView" : 3, "byteOffset" : 72, "componentType" : 5126, "count" : 1428, "type" : "VEC2", "max" : [0.7873213887214661, -0.23597818613052368], "min" : [0.21267861127853394, -0.8336217403411865], "name" : "TEXCOORD_6"}, {"bufferView" : 0, "byteOffset" : 4404, "componentType" : 5123, "count" : 108, "type" : "SCALAR", "max" : [107], "min" : [0]}, {"bufferView" : 4, "byteOffset" : 0, "componentType" : 5126, "count" : 108, "type" : "VEC3", "max" : [8.04035758972168, 33.12977981567383, 11.613872528076172], "min" : [-8.040361404418945, 21.77301788330078, 10.853357315063477], "name" : "POSITION"}, {"bufferView" : 4, "byteOffset" : 12, "componentType" : 5126, "count" : 108, "type" : "VEC3", "max" : [1.0000028610229492, 1.0000044107437134, 1.0000044107437134], "min" : [-1.0000028610229492, -1.0000044107437134, 0], "name" : "NORMAL"}, {"bufferView" : 4, "byteOffset" : 24, "componentType" : 5126, "count" : 108, "type" : "VEC2", "max" : [0.9732309579849243, -0.026769012212753296], "min" : [0.026769012212753296, -0.9732309579849243], "name" : "TEXCOORD_0"}, {"bufferView" : 4, "byteOffset" : 32, "componentType" : 5126, "count" : 108, "type" : "VEC2", "max" : [0.6079003214836121, -0.30125951766967773], "min" : [0.38877779245376587, -0.45216119289398193], "name" : "TEXCOORD_1"}, {"bufferView" : 4, "byteOffset" : 40, "componentType" : 5126, "count" : 108, "type" : "VEC2", "max" : [0.6079003214836121, -0.30125951766967773], "min" : [0.38877779245376587, -0.45216119289398193], "name" : "TEXCOORD_2"}, {"bufferView" : 4, "byteOffset" : 48, "componentType" : 5126, "count" : 108, "type" : "VEC2", "max" : [0.6079003214836121, -0.30125951766967773], "min" : [0.38877779245376587, -0.45216119289398193], "name" : "TEXCOORD_3"}, {"bufferView" : 4, "byteOffset" : 56, "componentType" : 5126, "count" : 108, "type" : "VEC2", "max" : [0.7333887815475464, -0.266611248254776], "min" : [0.266611248254776, -0.7333887815475464], "name" : "TEXCOORD_4"}, {"bufferView" : 4, "byteOffset" : 64, "componentType" : 5126, "count" : 108, "type" : "VEC2", "max" : [0.7333887815475464, -0.266611248254776], "min" : [0.266611248254776, -0.7333887815475464], "name" : "TEXCOORD_5"}, {"bufferView" : 4, "byteOffset" : 72, "componentType" : 5126, "count" : 108, "type" : "VEC2", "max" : [0.7333887815475464, -0.266611248254776], "min" : [0.266611248254776, -0.7333887815475464], "name" : "TEXCOORD_6"}, {"bufferView" : 0, "byteOffset" : 4620, "componentType" : 5123, "count" : 270, "type" : "SCALAR", "max" : [269], "min" : [0]}, {"bufferView" : 5, "byteOffset" : 0, "componentType" : 5126, "count" : 270, "type" : "VEC3", "max" : [7.269552230834961, 32.585411071777344, 11.451942443847656], "min" : [-7.269556045532227, 22.3173885345459, 9.527942657470703], "name" : "POSITION"}, {"bufferView" : 5, "byteOffset" : 12, "componentType" : 5126, "count" : 270, "type" : "VEC3", "max" : [0, 0, 1.0000044107437134], "min" : [0, 0, 1.0000042915344238], "name" : "NORMAL"}, {"bufferView" : 5, "byteOffset" : 24, "componentType" : 5126, "count" : 270, "type" : "VEC2", "max" : [0.8101887702941895, -0.25978875160217285], "min" : [0.1898113191127777, -0.7548155784606934], "name" : "TEXCOORD_0"}, {"bufferView" : 5, "byteOffset" : 32, "componentType" : 5126, "count" : 270, "type" : "VEC2", "max" : [0.5955304503440857, -0.3084927797317505], "min" : [0.4009498059749603, -0.44492799043655396], "name" : "TEXCOORD_1"}, {"bufferView" : 5, "byteOffset" : 40, "componentType" : 5126, "count" : 270, "type" : "VEC2", "max" : [0.5955304503440857, -0.3084927797317505], "min" : [0.4009498059749603, -0.44492799043655396], "name" : "TEXCOORD_2"}, {"bufferView" : 5, "byteOffset" : 48, "componentType" : 5126, "count" : 270, "type" : "VEC2", "max" : [0.5955304503440857, -0.3084927797317505], "min" : [0.4009498059749603, -0.44492799043655396], "name" : "TEXCOORD_3"}, {"bufferView" : 5, "byteOffset" : 56, "componentType" : 5126, "count" : 270, "type" : "VEC2", "max" : [0.6333098411560059, -0.3054993152618408], "min" : [0.3602668046951294, -0.4379715025424957], "name" : "TEXCOORD_4"}, {"bufferView" : 5, "byteOffset" : 64, "componentType" : 5126, "count" : 270, "type" : "VEC2", "max" : [0.6333098411560059, -0.3054993152618408], "min" : [0.3602668046951294, -0.4379715025424957], "name" : "TEXCOORD_5"}, {"bufferView" : 5, "byteOffset" : 72, "componentType" : 5126, "count" : 270, "type" : "VEC2", "max" : [0.6333098411560059, -0.3054993152618408], "min" : [0.3602668046951294, -0.4379715025424957], "name" : "TEXCOORD_6"}], "asset" : {"generator" : "Aspose.3D 22.1", "version" : "2.0"}, "buffers" : [{"uri" : "data:application/octet-stream;base64,", "byteLength" : 211584}], "bufferViews" : [{"buffer" : 0, "byteOffset" : 0, "byteLength" : 5160, "target" : 34963}, {"buffer" : 0, "byteOffset" : 5164, "byteLength" : 44640, "byteStride" : 80, "target" : 34962}, {"buffer" : 0, "byteOffset" : 49808, "byteLength" : 17280, "byteStride" : 80, "target" : 34962}, {"buffer" : 0, "byteOffset" : 67092, "byteLength" : 114240, "byteStride" : 80, "target" : 34962}, {"buffer" : 0, "byteOffset" : 181336, "byteLength" : 8640, "byteStride" : 80, "target" : 34962}, {"buffer" : 0, "byteOffset" : 189980, "byteLength" : 21600, "byteStride" : 80, "target" : 34962}], "images" : [{"uri" : "data:image/jpeg;base64,"}], "materials" : [{"name" : "", "pbrMetallicRoughness" : {"baseColorFactor" : [0.20000000298023224, 0.20000000298023224, 0.20000000298023224, 1], "metallicFactor" : 0, "roughnessFactor" : 0}, "emissiveFactor" : [1, 1, 1], "alphaMode" : "OPAQUE", "doubleSided" : false}, {"name" : "", "pbrMetallicRoughness" : {"baseColorFactor" : [0.699999988079071, 0.699999988079071, 0.699999988079071, 1], "baseColorTexture" : {"index" : 0, "texCoord" : 0}, "metallicFactor" : 0, "roughnessFactor" : 0}, "emissiveFactor" : [1, 1, 1], "alphaMode" : "OPAQUE", "doubleSided" : false}, {"name" : "", "pbrMetallicRoughness" : {"baseColorFactor" : [0.20000000298023224, 0.20000000298023224, 0.20000000298023224, 1], "metallicFactor" : 0, "roughnessFactor" : 0}, "emissiveFactor" : [1, 1, 1], "alphaMode" : "OPAQUE", "doubleSided" : false}, {"name" : "", "pbrMetallicRoughness" : {"baseColorFactor" : [0.699999988079071, 0.699999988079071, 0.699999988079071, 1], "baseColorTexture" : {"index" : 0, "texCoord" : 0}, "metallicFactor" : 0, "roughnessFactor" : 0}, "emissiveFactor" : [1, 1, 1], "alphaMode" : "OPAQUE", "doubleSided" : false}, {"name" : "", "pbrMetallicRoughness" : {"baseColorFactor" : [0.20000000298023224, 0.20000000298023224, 0.20000000298023224, 1], "metallicFactor" : 0, "roughnessFactor" : 0}, "emissiveFactor" : [1, 1, 1], "alphaMode" : "OPAQUE", "doubleSided" : false}], "meshes" : [{"primitives" : [{"attributes" : {"POSITION" : 1, "NORMAL" : 2, "TEXCOORD_0" : 3, "TEXCOORD_1" : 4, "TEXCOORD_2" : 5, "TEXCOORD_3" : 6, "TEXCOORD_4" : 7, "TEXCOORD_5" : 8, "TEXCOORD_6" : 9}, "indices" : 0, "material" : 0, "mode" : 4}, {"attributes" : {"POSITION" : 11, "NORMAL" : 12, "TEXCOORD_0" : 13, "TEXCOORD_1" : 14, "TEXCOORD_2" : 15, "TEXCOORD_3" : 16, "TEXCOORD_4" : 17, "TEXCOORD_5" : 18, "TEXCOORD_6" : 19}, "indices" : 10, "material" : 1, "mode" : 4}], "name" : ""}, {"primitives" : [{"attributes" : {"POSITION" : 21, "NORMAL" : 22, "TEXCOORD_0" : 23, "TEXCOORD_1" : 24, "TEXCOORD_2" : 25, "TEXCOORD_3" : 26, "TEXCOORD_4" : 27, "TEXCOORD_5" : 28, "TEXCOORD_6" : 29}, "indices" : 20, "material" : 2, "mode" : 4}, {"attributes" : {"POSITION" : 31, "NORMAL" : 32, "TEXCOORD_0" : 33, "TEXCOORD_1" : 34, "TEXCOORD_2" : 35, "TEXCOORD_3" : 36, "TEXCOORD_4" : 37, "TEXCOORD_5" : 38, "TEXCOORD_6" : 39}, "indices" : 30, "material" : 3, "mode" : 4}, {"attributes" : {"POSITION" : 41, "NORMAL" : 42, "TEXCOORD_0" : 43, "TEXCOORD_1" : 44, "TEXCOORD_2" : 45, "TEXCOORD_3" : 46, "TEXCOORD_4" : 47, "TEXCOORD_5" : 48, "TEXCOORD_6" : 49}, "indices" : 40, "material" : 4, "mode" : 4}], "name" : "_ncl1_1"}], "nodes" : [{"mesh" : 1, "name" : "M4_Body_Mid"}, {"children" : [0], "mesh" : 0, "name" : "M4_Body_top"}], "samplers" : [{"magFilter" : 9729, "minFilter" : 9729, "wrapS" : 33071, "wrapT" : 33071}], "scene" : 0, "scenes" : [{"nodes" : [1]}], "textures" : [{"sampler" : 0, "source" : 0}]}