{"accessors" : [{"bufferView" : 0, "byteOffset" : 0, "componentType" : 5123, "count" : 1896, "type" : "SCALAR", "max" : [1895], "min" : [0]}, {"bufferView" : 1, "byteOffset" : 0, "componentType" : 5126, "count" : 1896, "type" : "VEC3", "max" : [15.733799934387207, 49.1696891784668, 9.829169273376465], "min" : [-15.733799934387207, 17.779024124145508, -14.855842590332031], "name" : "POSITION"}, {"bufferView" : 1, "byteOffset" : 12, "componentType" : 5126, "count" : 1896, "type" : "VEC3", "max" : [1.0000044107437134, 1.0000042915344238, 0.9996793270111084], "min" : [-1.0000044107437134, -1.0000044107437134, -0.960914134979248], "name" : "NORMAL"}, {"bufferView" : 1, "byteOffset" : 24, "componentType" : 5126, "count" : 1896, "type" : "VEC2", "max" : [1.0503499507904053, -0.2963966131210327], "min" : [-0.12896180152893066, -0.7528649568557739], "name" : "TEXCOORD_0"}, {"bufferView" : 0, "byteOffset" : 3792, "componentType" : 5123, "count" : 312, "type" : "SCALAR", "max" : [311], "min" : [0]}, {"bufferView" : 2, "byteOffset" : 0, "componentType" : 5126, "count" : 312, "type" : "VEC3", "max" : [15.141189575195312, 48.48821258544922, 9.524652481079102], "min" : [-15.141189575195312, 19.658967971801758, -13.136367797851562], "name" : "POSITION"}, {"bufferView" : 2, "byteOffset" : 12, "componentType" : 5126, "count" : 312, "type" : "VEC3", "max" : [1.0000044107437134, 0.8236426711082458, 0.9862593412399292], "min" : [-1.0000044107437134, -0.8236426711082458, -0.9549636840820312], "name" : "NORMAL"}, {"bufferView" : 2, "byteOffset" : 24, "componentType" : 5126, "count" : 312, "type" : "VEC2", "max" : [1.0463201999664307, -0.3285614252090454], "min" : [-0.05272561311721802, -0.7467550039291382], "name" : "TEXCOORD_0"}, {"bufferView" : 0, "byteOffset" : 4416, "componentType" : 5123, "count" : 342, "type" : "SCALAR", "max" : [341], "min" : [0]}, {"bufferView" : 3, "byteOffset" : 0, "componentType" : 5126, "count" : 342, "type" : "VEC3", "max" : [12.255749702453613, 48.14366149902344, 9.749359130859375], "min" : [-12.255749702453613, 22.75633430480957, -1.5689048767089844], "name" : "POSITION"}, {"bufferView" : 3, "byteOffset" : 12, "componentType" : 5126, "count" : 342, "type" : "VEC3", "max" : [1.0000044107437134, 0.8144313097000122, 0.9873692989349365], "min" : [-1.0000044107437134, -1.0000044107437134, -0.8514300584793091], "name" : "NORMAL"}, {"bufferView" : 3, "byteOffset" : 24, "componentType" : 5126, "count" : 342, "type" : "VEC2", "max" : [1.0372645854949951, -0.48834967613220215], "min" : [0.035101503133773804, -0.7824380397796631], "name" : "TEXCOORD_0"}], "asset" : {"generator" : "Aspose.3D 22.1", "version" : "2.0"}, "buffers" : [{"uri" : "data:application/octet-stream;base64,", "byteLength" : 86716}], "bufferViews" : [{"buffer" : 0, "byteOffset" : 0, "byteLength" : 5100, "target" : 34963}, {"buffer" : 0, "byteOffset" : 5104, "byteLength" : 60672, "byteStride" : 32, "target" : 34962}, {"buffer" : 0, "byteOffset" : 65780, "byteLength" : 9984, "byteStride" : 32, "target" : 34962}, {"buffer" : 0, "byteOffset" : 75768, "byteLength" : 10944, "byteStride" : 32, "target" : 34962}], "images" : [{"uri" : "data:image/jpeg;base64,"}], "materials" : [{"name" : "", "pbrMetallicRoughness" : {"baseColorFactor" : [0.20000000298023224, 0.20000000298023224, 0.20000000298023224, 1], "metallicFactor" : 0, "roughnessFactor" : 0}, "emissiveFactor" : [1, 1, 1], "alphaMode" : "OPAQUE", "doubleSided" : false}, {"name" : "", "pbrMetallicRoughness" : {"baseColorFactor" : [0.20000000298023224, 0.20000000298023224, 0.20000000298023224, 1], "metallicFactor" : 0, "roughnessFactor" : 0}, "emissiveFactor" : [1, 1, 1], "alphaMode" : "OPAQUE", "doubleSided" : false}, {"name" : "", "pbrMetallicRoughness" : {"baseColorFactor" : [0.699999988079071, 0.699999988079071, 0.699999988079071, 1], "baseColorTexture" : {"index" : 0, "texCoord" : 0}, "metallicFactor" : 0, "roughnessFactor" : 0}, "emissiveFactor" : [1, 1, 1], "alphaMode" : "OPAQUE", "doubleSided" : false}], "meshes" : [{"primitives" : [{"attributes" : {"POSITION" : 1, "NORMAL" : 2, "TEXCOORD_0" : 3}, "indices" : 0, "material" : 0, "mode" : 4}, {"attributes" : {"POSITION" : 5, "NORMAL" : 6, "TEXCOORD_0" : 7}, "indices" : 4, "material" : 1, "mode" : 4}, {"attributes" : {"POSITION" : 9, "NORMAL" : 10, "TEXCOORD_0" : 11}, "indices" : 8, "material" : 2, "mode" : 4}], "name" : ""}], "nodes" : [{"matrix" : [1, 0, 0, 0, 0, 1, 0, 0, 0, 0, 1, 0, 0, 0, -8.881784197001252E-16, 1], "mesh" : 0, "name" : "M3_Body_top"}], "samplers" : [{"magFilter" : 9729, "minFilter" : 9729, "wrapS" : 33071, "wrapT" : 33071}], "scene" : 0, "scenes" : [{"nodes" : [0]}], "textures" : [{"sampler" : 0, "source" : 0}]}