{"accessors" : [{"bufferView" : 0, "byteOffset" : 0, "componentType" : 5123, "count" : 2877, "type" : "SCALAR", "max" : [2876], "min" : [0]}, {"bufferView" : 1, "byteOffset" : 0, "componentType" : 5126, "count" : 2877, "type" : "VEC3", "max" : [10.485515594482422, 70.75656127929688, 13.302127838134766], "min" : [-10.485515594482422, 47.197975158691406, -7.70073127746582], "name" : "POSITION"}, {"bufferView" : 1, "byteOffset" : 12, "componentType" : 5126, "count" : 2877, "type" : "VEC3", "max" : [0.9998524188995361, 0.9995224475860596, 1.0000044107437134], "min" : [-0.9998524188995361, -0.9995225071907043, -1.0000044107437134], "name" : "NORMAL"}, {"bufferView" : 1, "byteOffset" : 24, "componentType" : 5126, "count" : 2877, "type" : "VEC2", "max" : [1.0000004768371582, 5.960464477539063E-08], "min" : [6.197722512979453E-08, -0.9999999403953552], "name" : "TEXCOORD_0"}, {"bufferView" : 1, "byteOffset" : 32, "componentType" : 5126, "count" : 2877, "type" : "VEC2", "max" : [1, -0], "min" : [0, -1], "name" : "TEXCOORD_1"}, {"bufferView" : 1, "byteOffset" : 40, "componentType" : 5126, "count" : 2877, "type" : "VEC2", "max" : [1.0360004901885986, -0.6261121034622192], "min" : [0.004358481615781784, -0.9426944851875305], "name" : "TEXCOORD_2"}, {"bufferView" : 1, "byteOffset" : 48, "componentType" : 5126, "count" : 2877, "type" : "VEC2", "max" : [1.0360004901885986, -0.6261121034622192], "min" : [0.004358481615781784, -0.9426944851875305], "name" : "TEXCOORD_3"}, {"bufferView" : 1, "byteOffset" : 56, "componentType" : 5126, "count" : 2877, "type" : "VEC2", "max" : [0.7856860160827637, -0.21431398391723633], "min" : [0.21431398391723633, -0.9171164035797119], "name" : "TEXCOORD_4"}, {"bufferView" : 1, "byteOffset" : 64, "componentType" : 5126, "count" : 2877, "type" : "VEC2", "max" : [0.7856860160827637, -0.21431398391723633], "min" : [0.21431398391723633, -0.9171164035797119], "name" : "TEXCOORD_5"}, {"bufferView" : 1, "byteOffset" : 72, "componentType" : 5126, "count" : 2877, "type" : "VEC2", "max" : [0.7856860160827637, -0.21431398391723633], "min" : [0.21431398391723633, -0.9171164035797119], "name" : "TEXCOORD_6"}, {"bufferView" : 0, "byteOffset" : 5756, "componentType" : 5123, "count" : 54, "type" : "SCALAR", "max" : [53], "min" : [0]}, {"bufferView" : 2, "byteOffset" : 0, "componentType" : 5126, "count" : 54, "type" : "VEC3", "max" : [2.196774959564209, 65.01378631591797, 13.302127838134766], "min" : [-2.196784734725952, 52.275211334228516, 13.302127838134766], "name" : "POSITION"}, {"bufferView" : 2, "byteOffset" : 12, "componentType" : 5126, "count" : 54, "type" : "VEC3", "max" : [0, 0, 1.0000044107437134], "min" : [0, 0, 1.0000044107437134], "name" : "NORMAL"}, {"bufferView" : 2, "byteOffset" : 24, "componentType" : 5126, "count" : 54, "type" : "VEC2", "max" : [0.5332338809967041, -0.21551525592803955], "min" : [0.4667659401893616, -0.7562342882156372], "name" : "TEXCOORD_0"}, {"bufferView" : 2, "byteOffset" : 32, "componentType" : 5126, "count" : 54, "type" : "VEC2", "max" : [0.875, -0.0029319999739527702], "min" : [0.5580379962921143, -0.375], "name" : "TEXCOORD_1"}, {"bufferView" : 2, "byteOffset" : 40, "componentType" : 5126, "count" : 54, "type" : "VEC2", "max" : [0.5226603150367737, -0.6943404078483582], "min" : [0.473068505525589, -0.8655225038528442], "name" : "TEXCOORD_2"}, {"bufferView" : 2, "byteOffset" : 48, "componentType" : 5126, "count" : 54, "type" : "VEC2", "max" : [0.5226603150367737, -0.6943404078483582], "min" : [0.473068505525589, -0.8655225038528442], "name" : "TEXCOORD_3"}, {"bufferView" : 2, "byteOffset" : 56, "componentType" : 5126, "count" : 54, "type" : "VEC2", "max" : [0.5334826707839966, -0.6801393032073975], "min" : [0.4600938558578491, -0.8463491201400757], "name" : "TEXCOORD_4"}, {"bufferView" : 2, "byteOffset" : 64, "componentType" : 5126, "count" : 54, "type" : "VEC2", "max" : [0.5334826707839966, -0.6801393032073975], "min" : [0.4600938558578491, -0.8463491201400757], "name" : "TEXCOORD_5"}, {"bufferView" : 2, "byteOffset" : 72, "componentType" : 5126, "count" : 54, "type" : "VEC2", "max" : [0.5334826707839966, -0.6801393032073975], "min" : [0.4600938558578491, -0.8463491201400757], "name" : "TEXCOORD_6"}, {"bufferView" : 0, "byteOffset" : 5864, "componentType" : 5123, "count" : 348, "type" : "SCALAR", "max" : [347], "min" : [0]}, {"bufferView" : 3, "byteOffset" : 0, "componentType" : 5126, "count" : 348, "type" : "VEC3", "max" : [1.6355351209640503, 63.538673400878906, 13.571276664733887], "min" : [-1.7091671228408813, 55.97621154785156, 8.944746971130371], "name" : "POSITION"}, {"bufferView" : 3, "byteOffset" : 12, "componentType" : 5126, "count" : 348, "type" : "VEC3", "max" : [0.9984572529792786, 0.998754620552063, 1.0000044107437134], "min" : [-0.9984572529792786, -0.998754620552063, -9.79697762082331E-17], "name" : "NORMAL"}, {"bufferView" : 3, "byteOffset" : 24, "componentType" : 5126, "count" : 348, "type" : "VEC2", "max" : [0.5422912240028381, -0.37261295318603516], "min" : [0.4563634693622589, -0.6936196088790894], "name" : "TEXCOORD_0"}, {"bufferView" : 3, "byteOffset" : 32, "componentType" : 5126, "count" : 348, "type" : "VEC2", "max" : [0.65625, -0.3125], "min" : [0.34375, -1], "name" : "TEXCOORD_1"}, {"bufferView" : 3, "byteOffset" : 40, "componentType" : 5126, "count" : 348, "type" : "VEC2", "max" : [0.5236862301826477, -0.744074821472168], "min" : [0.46917182207107544, -0.8456999063491821], "name" : "TEXCOORD_2"}, {"bufferView" : 3, "byteOffset" : 48, "componentType" : 5126, "count" : 348, "type" : "VEC2", "max" : [0.5236862301826477, -0.744074821472168], "min" : [0.46917182207107544, -0.8456999063491821], "name" : "TEXCOORD_3"}, {"bufferView" : 3, "byteOffset" : 56, "componentType" : 5126, "count" : 348, "type" : "VEC2", "max" : [0.7922583222389221, -0.20774167776107788], "min" : [0.20774167776107788, -0.8271023035049438], "name" : "TEXCOORD_4"}, {"bufferView" : 3, "byteOffset" : 64, "componentType" : 5126, "count" : 348, "type" : "VEC2", "max" : [0.7922583222389221, -0.20774167776107788], "min" : [0.20774167776107788, -0.8271023035049438], "name" : "TEXCOORD_5"}, {"bufferView" : 3, "byteOffset" : 72, "componentType" : 5126, "count" : 348, "type" : "VEC2", "max" : [0.7922583222389221, -0.20774167776107788], "min" : [0.20774167776107788, -0.8271023035049438], "name" : "TEXCOORD_6"}, {"bufferView" : 0, "byteOffset" : 6560, "componentType" : 5123, "count" : 198, "type" : "SCALAR", "max" : [197], "min" : [0]}, {"bufferView" : 4, "byteOffset" : 0, "componentType" : 5126, "count" : 198, "type" : "VEC3", "max" : [2.5245866775512695, 65.32604217529297, 13.14504337310791], "min" : [-2.5245964527130127, 51.76911163330078, 13.14504337310791], "name" : "POSITION"}, {"bufferView" : 4, "byteOffset" : 12, "componentType" : 5126, "count" : 198, "type" : "VEC3", "max" : [0.46723780035972595, 0.4503369927406311, 1.0000044107437134], "min" : [-0.42765069007873535, -0.3412395119667053, 0.8156304955482483], "name" : "NORMAL"}, {"bufferView" : 4, "byteOffset" : 24, "componentType" : 5126, "count" : 198, "type" : "VEC2", "max" : [0.538580596446991, -0.19403263926506042], "min" : [0.4614192545413971, -0.7694886922836304], "name" : "TEXCOORD_0"}, {"bufferView" : 4, "byteOffset" : 32, "componentType" : 5126, "count" : 198, "type" : "VEC2", "max" : [0.875, -0], "min" : [0.547078013420105, -0.375], "name" : "TEXCOORD_1"}, {"bufferView" : 4, "byteOffset" : 40, "componentType" : 5126, "count" : 198, "type" : "VEC2", "max" : [0.5265969038009644, -0.6875394582748413], "min" : [0.4691195487976074, -0.8697186708450317], "name" : "TEXCOORD_2"}, {"bufferView" : 4, "byteOffset" : 48, "componentType" : 5126, "count" : 198, "type" : "VEC2", "max" : [0.5265969038009644, -0.6875394582748413], "min" : [0.4691195487976074, -0.8697186708450317], "name" : "TEXCOORD_3"}, {"bufferView" : 4, "byteOffset" : 56, "componentType" : 5126, "count" : 198, "type" : "VEC2", "max" : [0.5389583706855774, -0.673535943031311], "min" : [0.4546181559562683, -0.8504233956336975], "name" : "TEXCOORD_4"}, {"bufferView" : 4, "byteOffset" : 64, "componentType" : 5126, "count" : 198, "type" : "VEC2", "max" : [0.5389583706855774, -0.673535943031311], "min" : [0.4546181559562683, -0.8504233956336975], "name" : "TEXCOORD_5"}, {"bufferView" : 4, "byteOffset" : 72, "componentType" : 5126, "count" : 198, "type" : "VEC2", "max" : [0.5389583706855774, -0.673535943031311], "min" : [0.4546181559562683, -0.8504233956336975], "name" : "TEXCOORD_6"}], "asset" : {"generator" : "Aspose.3D 22.1", "version" : "2.0"}, "buffers" : [{"uri" : "data:application/octet-stream;base64,", "byteLength" : 285136}], "bufferViews" : [{"buffer" : 0, "byteOffset" : 0, "byteLength" : 6956, "target" : 34963}, {"buffer" : 0, "byteOffset" : 6960, "byteLength" : 230160, "byteStride" : 80, "target" : 34962}, {"buffer" : 0, "byteOffset" : 237124, "byteLength" : 4320, "byteStride" : 80, "target" : 34962}, {"buffer" : 0, "byteOffset" : 241448, "byteLength" : 27840, "byteStride" : 80, "target" : 34962}, {"buffer" : 0, "byteOffset" : 269292, "byteLength" : 15840, "byteStride" : 80, "target" : 34962}], "images" : [{"uri" : "data:image/jpeg;base64,"}, {"uri" : "data:image/jpeg;base64,"}], "materials" : [{"name" : "", "pbrMetallicRoughness" : {"baseColorFactor" : [0.20000000298023224, 0.20000000298023224, 0.20000000298023224, 1], "metallicFactor" : 0, "roughnessFactor" : 0}, "emissiveFactor" : [1, 1, 1], "alphaMode" : "OPAQUE", "doubleSided" : false}, {"name" : "", "pbrMetallicRoughness" : {"baseColorFactor" : [0.20000000298023224, 0.20000000298023224, 0.20000000298023224, 1], "metallicFactor" : 0, "roughnessFactor" : 0}, "emissiveFactor" : [1, 1, 1], "alphaMode" : "OPAQUE", "doubleSided" : false}, {"name" : "", "pbrMetallicRoughness" : {"baseColorFactor" : [0.699999988079071, 0.699999988079071, 0.699999988079071, 1], "baseColorTexture" : {"index" : 0, "texCoord" : 0}, "metallicFactor" : 0, "roughnessFactor" : 0}, "emissiveFactor" : [1, 1, 1], "alphaMode" : "OPAQUE", "doubleSided" : false}, {"name" : "", "pbrMetallicRoughness" : {"baseColorFactor" : [0.699999988079071, 0.699999988079071, 0.699999988079071, 1], "baseColorTexture" : {"index" : 1, "texCoord" : 0}, "metallicFactor" : 0, "roughnessFactor" : 0}, "emissiveFactor" : [1, 1, 1], "alphaMode" : "OPAQUE", "doubleSided" : false}], "meshes" : [{"primitives" : [{"attributes" : {"POSITION" : 1, "NORMAL" : 2, "TEXCOORD_0" : 3, "TEXCOORD_1" : 4, "TEXCOORD_2" : 5, "TEXCOORD_3" : 6, "TEXCOORD_4" : 7, "TEXCOORD_5" : 8, "TEXCOORD_6" : 9}, "indices" : 0, "material" : 0, "mode" : 4}, {"attributes" : {"POSITION" : 11, "NORMAL" : 12, "TEXCOORD_0" : 13, "TEXCOORD_1" : 14, "TEXCOORD_2" : 15, "TEXCOORD_3" : 16, "TEXCOORD_4" : 17, "TEXCOORD_5" : 18, "TEXCOORD_6" : 19}, "indices" : 10, "material" : 1, "mode" : 4}, {"attributes" : {"POSITION" : 21, "NORMAL" : 22, "TEXCOORD_0" : 23, "TEXCOORD_1" : 24, "TEXCOORD_2" : 25, "TEXCOORD_3" : 26, "TEXCOORD_4" : 27, "TEXCOORD_5" : 28, "TEXCOORD_6" : 29}, "indices" : 20, "material" : 2, "mode" : 4}, {"attributes" : {"POSITION" : 31, "NORMAL" : 32, "TEXCOORD_0" : 33, "TEXCOORD_1" : 34, "TEXCOORD_2" : 35, "TEXCOORD_3" : 36, "TEXCOORD_4" : 37, "TEXCOORD_5" : 38, "TEXCOORD_6" : 39}, "indices" : 30, "material" : 3, "mode" : 4}], "name" : ""}], "nodes" : [{"mesh" : 0, "name" : "Head_v3"}], "samplers" : [{"magFilter" : 9729, "minFilter" : 9729, "wrapS" : 33071, "wrapT" : 33071}, {"magFilter" : 9729, "minFilter" : 9729, "wrapS" : 33071, "wrapT" : 33071}], "scene" : 0, "scenes" : [{"nodes" : [0]}], "textures" : [{"sampler" : 0, "source" : 0}, {"sampler" : 1, "source" : 1}]}