{
  "accessors": [
    {
      "bufferView": 0,
      "byteOffset": 0,
      "componentType": 5123,
      "count": 2817,
      "type": "SCALAR",
      "max": [
        2816
      ],
      "min": [
        0
      ]
    },
    {
      "bufferView": 1,
      "byteOffset": 0,
      "componentType": 5126,
      "count": 2817,
      "type": "VEC3",
      "max": [
        13.57380485534668,
        7.125965595245361,
        12.90013599395752
      ],
      "min": [
        -13.57380485534668,
        -7.125965595245361,
        -12.90013599395752
      ],
      "name": "POSITION"
    },
    {
      "bufferView": 1,
      "byteOffset": 12,
      "componentType": 5126,
      "count": 2817,
      "type": "VEC3",
      "max": [
        1.0000044107437134,
        1.0000044107437134,
        1.0000044107437134
      ],
      "min": [
        -1.0000044107437134,
        -1.0000044107437134,
        -1.0000044107437134
      ],
      "name": "NORMAL"
    },
    {
      "bufferView": 1,
      "byteOffset": 24,
      "componentType": 5126,
      "count": 2817,
      "type": "VEC2",
      "max": [
        1,
        0
      ],
      "min": [
        0,
        -1
      ],
      "name": "TEXCOORD_0"
    },
    {
      "bufferView": 1,
      "byteOffset": 32,
      "componentType": 5126,
      "count": 2817,
      "type": "VEC2",
      "max": [
        1,
        0.000514000013936311
      ],
      "min": [
        0,
        -1
      ],
      "name": "TEXCOORD_1"
    },
    {
      "bufferView": 1,
      "byteOffset": 40,
      "componentType": 5126,
      "count": 2817,
      "type": "VEC2",
      "max": [
        1.1648210287094116,
        -0.6614742279052734
      ],
      "min": [
        -0.20176666975021362,
        -0.9073324203491211
      ],
      "name": "TEXCOORD_2"
    },
    {
      "bufferView": 1,
      "byteOffset": 48,
      "componentType": 5126,
      "count": 2817,
      "type": "VEC2",
      "max": [
        1.1648210287094116,
        -0.6614742279052734
      ],
      "min": [
        -0.20176666975021362,
        -0.9073324203491211
      ],
      "name": "TEXCOORD_3"
    },
    {
      "bufferView": 1,
      "byteOffset": 56,
      "componentType": 5126,
      "count": 2817,
      "type": "VEC2",
      "max": [
        1.1648210287094116,
        -0.6614742279052734
      ],
      "min": [
        -0.20176666975021362,
        -0.9073324203491211
      ],
      "name": "TEXCOORD_4"
    },
    {
      "bufferView": 1,
      "byteOffset": 64,
      "componentType": 5126,
      "count": 2817,
      "type": "VEC2",
      "max": [
        0.988053560256958,
        -0.007659196853637695
      ],
      "min": [
        0.01194646954536438,
        -0.9881420135498047
      ],
      "name": "TEXCOORD_5"
    },
    {
      "bufferView": 1,
      "byteOffset": 72,
      "componentType": 5126,
      "count": 2817,
      "type": "VEC2",
      "max": [
        0.988053560256958,
        -0.007659196853637695
      ],
      "min": [
        0.01194646954536438,
        -0.9881420135498047
      ],
      "name": "TEXCOORD_6"
    },
    {
      "bufferView": 1,
      "byteOffset": 80,
      "componentType": 5126,
      "count": 2817,
      "type": "VEC2",
      "max": [
        0.988053560256958,
        -0.007659196853637695
      ],
      "min": [
        0.01194646954536438,
        -0.9881420135498047
      ],
      "name": "TEXCOORD_7"
    },
    {
      "bufferView": 0,
      "byteOffset": 5636,
      "componentType": 5123,
      "count": 24,
      "type": "SCALAR",
      "max": [
        23
      ],
      "min": [
        0
      ]
    },
    {
      "bufferView": 2,
      "byteOffset": 0,
      "componentType": 5126,
      "count": 24,
      "type": "VEC3",
      "max": [
        10.862318992614746,
        4.890476703643799,
        7.790773391723633
      ],
      "min": [
        -10.468920707702637,
        -1.959469199180603,
        6.7846245765686035
      ],
      "name": "POSITION"
    },
    {
      "bufferView": 2,
      "byteOffset": 12,
      "componentType": 5126,
      "count": 24,
      "type": "VEC3",
      "max": [
        2.026239087626891e-7,
        6.931587715341568e-16,
        1.0000044107437134
      ],
      "min": [
        -0.0000033409671686968068,
        -0.000005700646852346836,
        1.0000044107437134
      ],
      "name": "NORMAL"
    },
    {
      "bufferView": 2,
      "byteOffset": 24,
      "componentType": 5126,
      "count": 24,
      "type": "VEC2",
      "max": [
        0.9001206159591675,
        -0.3625120222568512
      ],
      "min": [
        0.1143704354763031,
        -0.8431448340415955
      ],
      "name": "TEXCOORD_0"
    },
    {
      "bufferView": 2,
      "byteOffset": 32,
      "componentType": 5126,
      "count": 24,
      "type": "VEC2",
      "max": [
        0.625,
        0
      ],
      "min": [
        0.375,
        -0.25
      ],
      "name": "TEXCOORD_1"
    },
    {
      "bufferView": 2,
      "byteOffset": 40,
      "componentType": 5126,
      "count": 24,
      "type": "VEC2",
      "max": [
        0.6366676092147827,
        -0.7506007552146912
      ],
      "min": [
        0.37246647477149963,
        -0.8687682747840881
      ],
      "name": "TEXCOORD_2"
    },
    {
      "bufferView": 2,
      "byteOffset": 48,
      "componentType": 5126,
      "count": 24,
      "type": "VEC2",
      "max": [
        0.6366676092147827,
        -0.7506007552146912
      ],
      "min": [
        0.37246647477149963,
        -0.8687682747840881
      ],
      "name": "TEXCOORD_3"
    },
    {
      "bufferView": 2,
      "byteOffset": 56,
      "componentType": 5126,
      "count": 24,
      "type": "VEC2",
      "max": [
        0.6366676092147827,
        -0.7506007552146912
      ],
      "min": [
        0.37246647477149963,
        -0.8687682747840881
      ],
      "name": "TEXCOORD_4"
    },
    {
      "bufferView": 2,
      "byteOffset": 64,
      "componentType": 5126,
      "count": 24,
      "type": "VEC2",
      "max": [
        0.7616305351257324,
        -0.7347655296325684
      ],
      "min": [
        0.2415379285812378,
        -0.8495006561279297
      ],
      "name": "TEXCOORD_5"
    },
    {
      "bufferView": 2,
      "byteOffset": 72,
      "componentType": 5126,
      "count": 24,
      "type": "VEC2",
      "max": [
        0.7616305351257324,
        -0.7347655296325684
      ],
      "min": [
        0.2415379285812378,
        -0.8495006561279297
      ],
      "name": "TEXCOORD_6"
    },
    {
      "bufferView": 2,
      "byteOffset": 80,
      "componentType": 5126,
      "count": 24,
      "type": "VEC2",
      "max": [
        0.7616305351257324,
        -0.7347655296325684
      ],
      "min": [
        0.2415379285812378,
        -0.8495006561279297
      ],
      "name": "TEXCOORD_7"
    },
    {
      "bufferView": 0,
      "byteOffset": 5684,
      "componentType": 5123,
      "count": 858,
      "type": "SCALAR",
      "max": [
        857
      ],
      "min": [
        0
      ]
    },
    {
      "bufferView": 3,
      "byteOffset": 0,
      "componentType": 5126,
      "count": 858,
      "type": "VEC3",
      "max": [
        8.779430389404297,
        4.027363300323486,
        8.564337730407715
      ],
      "min": [
        -7.331945896148682,
        -1.823066234588623,
        3.625675916671753
      ],
      "name": "POSITION"
    },
    {
      "bufferView": 3,
      "byteOffset": 12,
      "componentType": 5126,
      "count": 858,
      "type": "VEC3",
      "max": [
        1.0000044107437134,
        1.0000044107437134,
        1.0000044107437134
      ],
      "min": [
        -1.0000044107437134,
        -1.0000044107437134,
        -1.0000044107437134
      ],
      "name": "NORMAL"
    },
    {
      "bufferView": 3,
      "byteOffset": 24,
      "componentType": 5126,
      "count": 858,
      "type": "VEC2",
      "max": [
        0.8233960866928101,
        -0.18126633763313293
      ],
      "min": [
        0.18126633763313293,
        -0.8187336921691895
      ],
      "name": "TEXCOORD_0"
    },
    {
      "bufferView": 3,
      "byteOffset": 32,
      "componentType": 5126,
      "count": 858,
      "type": "VEC2",
      "max": [
        0.875,
        0
      ],
      "min": [
        0.125,
        -1
      ],
      "name": "TEXCOORD_1"
    },
    {
      "bufferView": 3,
      "byteOffset": 40,
      "componentType": 5126,
      "count": 858,
      "type": "VEC2",
      "max": [
        0.6313563585281372,
        -0.752953827381134
      ],
      "min": [
        0.35909515619277954,
        -0.8538788557052612
      ],
      "name": "TEXCOORD_2"
    },
    {
      "bufferView": 3,
      "byteOffset": 48,
      "componentType": 5126,
      "count": 858,
      "type": "VEC2",
      "max": [
        0.6313563585281372,
        -0.752953827381134
      ],
      "min": [
        0.35909515619277954,
        -0.8538788557052612
      ],
      "name": "TEXCOORD_3"
    },
    {
      "bufferView": 3,
      "byteOffset": 56,
      "componentType": 5126,
      "count": 858,
      "type": "VEC2",
      "max": [
        0.6313563585281372,
        -0.752953827381134
      ],
      "min": [
        0.35909515619277954,
        -0.8538788557052612
      ],
      "name": "TEXCOORD_4"
    },
    {
      "bufferView": 3,
      "byteOffset": 64,
      "componentType": 5126,
      "count": 858,
      "type": "VEC2",
      "max": [
        0.8121883869171143,
        -0.18781164288520813
      ],
      "min": [
        0.18781164288520813,
        -0.8350436687469482
      ],
      "name": "TEXCOORD_5"
    },
    {
      "bufferView": 3,
      "byteOffset": 72,
      "componentType": 5126,
      "count": 858,
      "type": "VEC2",
      "max": [
        0.8121883869171143,
        -0.18781164288520813
      ],
      "min": [
        0.18781164288520813,
        -0.8350436687469482
      ],
      "name": "TEXCOORD_6"
    },
    {
      "bufferView": 3,
      "byteOffset": 80,
      "componentType": 5126,
      "count": 858,
      "type": "VEC2",
      "max": [
        0.8121883869171143,
        -0.18781164288520813
      ],
      "min": [
        0.18781164288520813,
        -0.8350436687469482
      ],
      "name": "TEXCOORD_7"
    },
    {
      "bufferView": 0,
      "byteOffset": 7400,
      "componentType": 5123,
      "count": 453,
      "type": "SCALAR",
      "max": [
        452
      ],
      "min": [
        0
      ]
    },
    {
      "bufferView": 4,
      "byteOffset": 0,
      "componentType": 5126,
      "count": 453,
      "type": "VEC3",
      "max": [
        13.57380485534668,
        7.125965595245361,
        3.8548381328582764
      ],
      "min": [
        -13.441643714904785,
        -3.920206308364868,
        -9.225239753723145
      ],
      "name": "POSITION"
    },
    {
      "bufferView": 4,
      "byteOffset": 12,
      "componentType": 5126,
      "count": 453,
      "type": "VEC3",
      "max": [
        0.9053314924240112,
        0.9977176785469055,
        1.0000044107437134
      ],
      "min": [
        -1.0000044107437134,
        -1.0000044107437134,
        -1.0000044107437134
      ],
      "name": "NORMAL"
    },
    {
      "bufferView": 4,
      "byteOffset": 24,
      "componentType": 5126,
      "count": 453,
      "type": "VEC2",
      "max": [
        1,
        -0.14243632555007935
      ],
      "min": [
        0,
        -1
      ],
      "name": "TEXCOORD_0"
    },
    {
      "bufferView": 4,
      "byteOffset": 32,
      "componentType": 5126,
      "count": 453,
      "type": "VEC2",
      "max": [
        1,
        0
      ],
      "min": [
        0,
        -1
      ],
      "name": "TEXCOORD_1"
    },
    {
      "bufferView": 4,
      "byteOffset": 40,
      "componentType": 5126,
      "count": 453,
      "type": "VEC2",
      "max": [
        0.8338242769241333,
        -0.7167763710021973
      ],
      "min": [
        0.1647646725177765,
        -0.9073324203491211
      ],
      "name": "TEXCOORD_2"
    },
    {
      "bufferView": 4,
      "byteOffset": 48,
      "componentType": 5126,
      "count": 453,
      "type": "VEC2",
      "max": [
        0.8338242769241333,
        -0.7167763710021973
      ],
      "min": [
        0.1647646725177765,
        -0.9073324203491211
      ],
      "name": "TEXCOORD_3"
    },
    {
      "bufferView": 4,
      "byteOffset": 56,
      "componentType": 5126,
      "count": 453,
      "type": "VEC2",
      "max": [
        0.8338242769241333,
        -0.7167763710021973
      ],
      "min": [
        0.1647646725177765,
        -0.9073324203491211
      ],
      "name": "TEXCOORD_4"
    },
    {
      "bufferView": 4,
      "byteOffset": 64,
      "componentType": 5126,
      "count": 453,
      "type": "VEC2",
      "max": [
        0.8309421539306641,
        -0.20372319221496582
      ],
      "min": [
        0.16905781626701355,
        -0.8869445323944092
      ],
      "name": "TEXCOORD_5"
    },
    {
      "bufferView": 4,
      "byteOffset": 72,
      "componentType": 5126,
      "count": 453,
      "type": "VEC2",
      "max": [
        0.8309421539306641,
        -0.20372319221496582
      ],
      "min": [
        0.16905781626701355,
        -0.8869445323944092
      ],
      "name": "TEXCOORD_6"
    },
    {
      "bufferView": 4,
      "byteOffset": 80,
      "componentType": 5126,
      "count": 453,
      "type": "VEC2",
      "max": [
        0.8309421539306641,
        -0.20372319221496582
      ],
      "min": [
        0.16905781626701355,
        -0.8869445323944092
      ],
      "name": "TEXCOORD_7"
    }
  ],
  "asset": {
    "generator": "Aspose.3D 22.1",
    "version": "2.0"
  },
  "buffers": [
    {
      "uri": "data:application/octet-stream;base64,",
      "byteLength": 373704
    }
  ],
  "bufferViews": [
    {
      "buffer": 0,
      "byteOffset": 0,
      "byteLength": 8308,
      "target": 34963
    },
    {
      "buffer": 0,
      "byteOffset": 8312,
      "byteLength": 247896,
      "byteStride": 88,
      "target": 34962
    },
    {
      "buffer": 0,
      "byteOffset": 256212,
      "byteLength": 2112,
      "byteStride": 88,
      "target": 34962
    },
    {
      "buffer": 0,
      "byteOffset": 258328,
      "byteLength": 75504,
      "byteStride": 88,
      "target": 34962
    },
    {
      "buffer": 0,
      "byteOffset": 333836,
      "byteLength": 39864,
      "byteStride": 88,
      "target": 34962
    }
  ],
  "images": [
    {
      "uri": "data:image/jpeg;base64,"
    },
    {
      "uri": "data:image/jpeg;base64,"
    }
  ],
  "materials": [
    {
      "name": "",
      "pbrMetallicRoughness": {
        "baseColorFactor": [
          0.20000000298023224,
          0.20000000298023224,
          0.20000000298023224,
          1
        ],
        "metallicFactor": 0,
        "roughnessFactor": 0
      },
      "emissiveFactor": [
        1,
        1,
        1
      ],
      "alphaMode": "OPAQUE",
      "doubleSided": false,
      "alphaCutoff": 0.5
    },
    {
      "name": "",
      "pbrMetallicRoughness": {
        "baseColorFactor": [
          0.20000000298023224,
          0.20000000298023224,
          0.20000000298023224,
          1
        ],
        "metallicFactor": 0,
        "roughnessFactor": 0
      },
      "emissiveFactor": [
        1,
        1,
        1
      ],
      "alphaMode": "OPAQUE",
      "doubleSided": false,
      "alphaCutoff": 0.5
    },
    {
      "name": "",
      "pbrMetallicRoughness": {
        "baseColorFactor": [
          0.699999988079071,
          0.699999988079071,
          0.699999988079071,
          1
        ],
        "baseColorTexture": {
          "index": 0,
          "texCoord": 0
        },
        "metallicFactor": 0,
        "roughnessFactor": 0
      },
      "emissiveFactor": [
        1,
        1,
        1
      ],
      "alphaMode": "OPAQUE",
      "doubleSided": false,
      "alphaCutoff": 0.5
    },
    {
      "name": "",
      "pbrMetallicRoughness": {
        "baseColorFactor": [
          0.699999988079071,
          0.699999988079071,
          0.699999988079071,
          1
        ],
        "baseColorTexture": {
          "index": 1,
          "texCoord": 0
        },
        "metallicFactor": 0,
        "roughnessFactor": 0
      },
      "emissiveFactor": [
        1,
        1,
        1
      ],
      "alphaMode": "OPAQUE",
      "doubleSided": false,
      "alphaCutoff": 0.5
    }
  ],
  "meshes": [
    {
      "primitives": [
        {
          "attributes": {
            "POSITION": 1,
            "NORMAL": 2,
            "TEXCOORD_0": 3,
            "TEXCOORD_1": 4,
            "TEXCOORD_2": 5,
            "TEXCOORD_3": 6,
            "TEXCOORD_4": 7,
            "TEXCOORD_5": 8,
            "TEXCOORD_6": 9,
            "TEXCOORD_7": 10
          },
          "indices": 0,
          "material": 0,
          "mode": 4
        },
        {
          "attributes": {
            "POSITION": 12,
            "NORMAL": 13,
            "TEXCOORD_0": 14,
            "TEXCOORD_1": 15,
            "TEXCOORD_2": 16,
            "TEXCOORD_3": 17,
            "TEXCOORD_4": 18,
            "TEXCOORD_5": 19,
            "TEXCOORD_6": 20,
            "TEXCOORD_7": 21
          },
          "indices": 11,
          "material": 1,
          "mode": 4
        },
        {
          "attributes": {
            "POSITION": 23,
            "NORMAL": 24,
            "TEXCOORD_0": 25,
            "TEXCOORD_1": 26,
            "TEXCOORD_2": 27,
            "TEXCOORD_3": 28,
            "TEXCOORD_4": 29,
            "TEXCOORD_5": 30,
            "TEXCOORD_6": 31,
            "TEXCOORD_7": 32
          },
          "indices": 22,
          "material": 2,
          "mode": 4
        },
        {
          "attributes": {
            "POSITION": 34,
            "NORMAL": 35,
            "TEXCOORD_0": 36,
            "TEXCOORD_1": 37,
            "TEXCOORD_2": 38,
            "TEXCOORD_3": 39,
            "TEXCOORD_4": 40,
            "TEXCOORD_5": 41,
            "TEXCOORD_6": 42,
            "TEXCOORD_7": 43
          },
          "indices": 33,
          "material": 3,
          "mode": 4
        }
      ],
      "name": ""
    }
  ],
  "nodes": [
    {
      "matrix": [
        1,
        0,
        0,
        0,
        0,
        1,
        0,
        0,
        0,
        0,
        1,
        0,
        7.993605777301127e-15,
        54.95132790120906,
        2.8289183139779457,
        1
      ],
      "mesh": 0,
      "name": "Head_v1"
    }
  ],
  "samplers": [
    {
      "magFilter": 9729,
      "minFilter": 9729,
      "wrapS": 33071,
      "wrapT": 33071
    },
    {
      "magFilter": 9729,
      "minFilter": 9729,
      "wrapS": 33071,
      "wrapT": 33071
    }
  ],
  "scene": 0,
  "scenes": [
    {
      "nodes": [
        0
      ]
    }
  ],
  "textures": [
    {
      "sampler": 0,
      "source": 0
    },
    {
      "sampler": 1,
      "source": 1
    }
  ]
}
          