{"accessors" : [{"bufferView" : 0, "byteOffset" : 0, "componentType" : 5123, "count" : 3972, "type" : "SCALAR", "max" : [3971], "min" : [0]}, {"bufferView" : 1, "byteOffset" : 0, "componentType" : 5126, "count" : 3972, "type" : "VEC3", "max" : [9.837224960327148, 69.97806549072266, 10.312618255615234], "min" : [-9.837218284606934, 54.96475601196289, -9.36181926727295], "name" : "POSITION"}, {"bufferView" : 1, "byteOffset" : 12, "componentType" : 5126, "count" : 3972, "type" : "VEC3", "max" : [1.0000044107437134, 1.0000044107437134, 1.0000044107437134], "min" : [-1.0000044107437134, -1.0000044107437134, -1.0000044107437134], "name" : "NORMAL"}, {"bufferView" : 1, "byteOffset" : 24, "componentType" : 5126, "count" : 3972, "type" : "VEC2", "max" : [1.0000461339950562, -8.940696716308594E-08], "min" : [2.4031727718920592E-08, -1.0000001192092896], "name" : "TEXCOORD_0"}, {"bufferView" : 1, "byteOffset" : 32, "componentType" : 5126, "count" : 3972, "type" : "VEC2", "max" : [1.0000461339950562, -0.20961309969425201], "min" : [1.7759989034971113E-08, -0.8016000390052795], "name" : "TEXCOORD_1"}, {"bufferView" : 1, "byteOffset" : 40, "componentType" : 5126, "count" : 3972, "type" : "VEC2", "max" : [1.0000461339950562, -0.20961309969425201], "min" : [1.7759989034971113E-08, -0.8016000390052795], "name" : "TEXCOORD_2"}, {"bufferView" : 0, "byteOffset" : 7944, "componentType" : 5123, "count" : 624, "type" : "SCALAR", "max" : [623], "min" : [0]}, {"bufferView" : 2, "byteOffset" : 0, "componentType" : 5126, "count" : 624, "type" : "VEC3", "max" : [9.900609970092773, 69.80470275878906, 10.384977340698242], "min" : [-9.900603294372559, 65.79045104980469, -4.005821228027344], "name" : "POSITION"}, {"bufferView" : 2, "byteOffset" : 12, "componentType" : 5126, "count" : 624, "type" : "VEC3", "max" : [0.9958621263504028, 0.9994961619377136, 0.9852482676506042], "min" : [-0.9958620667457581, -0.9792346954345703, -0.9556009769439697], "name" : "NORMAL"}, {"bufferView" : 2, "byteOffset" : 24, "componentType" : 5126, "count" : 624, "type" : "VEC2", "max" : [0.8258415460586548, -0.7210731506347656], "min" : [0.17415842413902283, -0.9884528517723083], "name" : "TEXCOORD_0"}, {"bufferView" : 2, "byteOffset" : 32, "componentType" : 5126, "count" : 624, "type" : "VEC2", "max" : [0.8258415460586548, -0.6034175753593445], "min" : [0.17415842413902283, -0.7792544364929199], "name" : "TEXCOORD_1"}, {"bufferView" : 2, "byteOffset" : 40, "componentType" : 5126, "count" : 624, "type" : "VEC2", "max" : [0.8258415460586548, -0.6034175753593445], "min" : [0.17415842413902283, -0.7792544364929199], "name" : "TEXCOORD_2"}, {"bufferView" : 0, "byteOffset" : 9192, "componentType" : 5123, "count" : 528, "type" : "SCALAR", "max" : [527], "min" : [0]}, {"bufferView" : 3, "byteOffset" : 0, "componentType" : 5126, "count" : 528, "type" : "VEC3", "max" : [8.34447956085205, 64.06123352050781, 9.851652145385742], "min" : [-7.576627731323242, 59.7048225402832, 4.738155841827393], "name" : "POSITION"}, {"bufferView" : 3, "byteOffset" : 12, "componentType" : 5126, "count" : 528, "type" : "VEC3", "max" : [1.0000042915344238, 0.25882014632225037, 1.0000044107437134], "min" : [-0.8090204000473022, -4.879152015746513E-07, -2.2263522511728397E-16], "name" : "NORMAL"}, {"bufferView" : 3, "byteOffset" : 24, "componentType" : 5126, "count" : 528, "type" : "VEC2", "max" : [0.6753812432289124, -0.31572431325912476], "min" : [0.3496536314487457, -0.6058939099311829], "name" : "TEXCOORD_0"}, {"bufferView" : 3, "byteOffset" : 32, "componentType" : 5126, "count" : 528, "type" : "VEC2", "max" : [0.6753812432289124, -0.3855556547641754], "min" : [0.3496536314487457, -0.5671232342720032], "name" : "TEXCOORD_1"}, {"bufferView" : 3, "byteOffset" : 40, "componentType" : 5126, "count" : 528, "type" : "VEC2", "max" : [0.6753812432289124, -0.3855556547641754], "min" : [0.3496536314487457, -0.5671232342720032], "name" : "TEXCOORD_2"}, {"bufferView" : 0, "byteOffset" : 10248, "componentType" : 5123, "count" : 5328, "type" : "SCALAR", "max" : [5327], "min" : [0]}, {"bufferView" : 4, "byteOffset" : 0, "componentType" : 5126, "count" : 5328, "type" : "VEC3", "max" : [12.040799140930176, 66.83978271484375, 10.246944427490234], "min" : [-12.040799140930176, 53.59911346435547, -5.7189812660217285], "name" : "POSITION"}, {"bufferView" : 4, "byteOffset" : 12, "componentType" : 5126, "count" : 5328, "type" : "VEC3", "max" : [1.0000044107437134, 1.0000044107437134, 1.0000044107437134], "min" : [-1.0000044107437134, -1.0000044107437134, -1.0000044107437134], "name" : "NORMAL"}, {"bufferView" : 4, "byteOffset" : 24, "componentType" : 5126, "count" : 5328, "type" : "VEC2", "max" : [1.008791208267212, -0.05964842438697815], "min" : [-0.010400116443634033, -0.9403516054153442], "name" : "TEXCOORD_0"}, {"bufferView" : 4, "byteOffset" : 32, "componentType" : 5126, "count" : 5328, "type" : "VEC2", "max" : [1, -0], "min" : [0, -1], "name" : "TEXCOORD_1"}, {"bufferView" : 4, "byteOffset" : 40, "componentType" : 5126, "count" : 5328, "type" : "VEC2", "max" : [1, -0], "min" : [0, -1], "name" : "TEXCOORD_2"}, {"bufferView" : 4, "byteOffset" : 48, "componentType" : 5126, "count" : 5328, "type" : "VEC2", "max" : [1.2397472858428955, -0.6678402423858643], "min" : [-0.23939043283462524, -0.8623738884925842], "name" : "TEXCOORD_3"}, {"bufferView" : 4, "byteOffset" : 56, "componentType" : 5126, "count" : 5328, "type" : "VEC2", "max" : [1.2397472858428955, -0.6678402423858643], "min" : [-0.23939043283462524, -0.8623738884925842], "name" : "TEXCOORD_4"}, {"bufferView" : 4, "byteOffset" : 64, "componentType" : 5126, "count" : 5328, "type" : "VEC2", "max" : [0.7626398801803589, -0.20550253987312317], "min" : [0.23736023902893066, -0.8432919979095459], "name" : "TEXCOORD_5"}, {"bufferView" : 4, "byteOffset" : 72, "componentType" : 5126, "count" : 5328, "type" : "VEC2", "max" : [0.7626398801803589, -0.20550253987312317], "min" : [0.23736023902893066, -0.8432919979095459], "name" : "TEXCOORD_6"}, {"bufferView" : 4, "byteOffset" : 80, "componentType" : 5126, "count" : 5328, "type" : "VEC2", "max" : [0.7626398801803589, -0.20550253987312317], "min" : [0.23736023902893066, -0.8432919979095459], "name" : "TEXCOORD_7"}, {"bufferView" : 0, "byteOffset" : 20904, "componentType" : 5123, "count" : 204, "type" : "SCALAR", "max" : [203], "min" : [0]}, {"bufferView" : 5, "byteOffset" : 0, "componentType" : 5126, "count" : 204, "type" : "VEC3", "max" : [12.040799140930176, 66.56031799316406, 6.317493438720703], "min" : [-12.040799140930176, 61.167022705078125, -5.150015830993652], "name" : "POSITION"}, {"bufferView" : 5, "byteOffset" : 12, "componentType" : 5126, "count" : 204, "type" : "VEC3", "max" : [0.9795573949813843, 0.39423778653144836, 0.3893844187259674], "min" : [-0.9795572757720947, 0.03147247061133385, -0.37494245171546936], "name" : "NORMAL"}, {"bufferView" : 5, "byteOffset" : 24, "componentType" : 5126, "count" : 204, "type" : "VEC2", "max" : [0.44878900051116943, -0.05964842438697815], "min" : [0.045455124229192734, -0.9403516054153442], "name" : "TEXCOORD_0"}, {"bufferView" : 5, "byteOffset" : 32, "componentType" : 5126, "count" : 204, "type" : "VEC2", "max" : [0.612500011920929, -0.3125], "min" : [0.5062500238418579, -0.6884400248527527], "name" : "TEXCOORD_1"}, {"bufferView" : 5, "byteOffset" : 40, "componentType" : 5126, "count" : 204, "type" : "VEC2", "max" : [0.612500011920929, -0.3125], "min" : [0.5062500238418579, -0.6884400248527527], "name" : "TEXCOORD_2"}, {"bufferView" : 5, "byteOffset" : 48, "componentType" : 5126, "count" : 204, "type" : "VEC2", "max" : [0.7882622480392456, -0.7869977951049805], "min" : [0.21287330985069275, -0.8586605787277222], "name" : "TEXCOORD_3"}, {"bufferView" : 5, "byteOffset" : 56, "componentType" : 5126, "count" : 204, "type" : "VEC2", "max" : [0.7882622480392456, -0.7869977951049805], "min" : [0.21287330985069275, -0.8586605787277222], "name" : "TEXCOORD_4"}, {"bufferView" : 5, "byteOffset" : 64, "componentType" : 5126, "count" : 204, "type" : "VEC2", "max" : [0.6866185665130615, -0.770105242729187], "min" : [0.3133814036846161, -0.8396865129470825], "name" : "TEXCOORD_5"}, {"bufferView" : 5, "byteOffset" : 72, "componentType" : 5126, "count" : 204, "type" : "VEC2", "max" : [0.6866185665130615, -0.770105242729187], "min" : [0.3133814036846161, -0.8396865129470825], "name" : "TEXCOORD_6"}, {"bufferView" : 5, "byteOffset" : 80, "componentType" : 5126, "count" : 204, "type" : "VEC2", "max" : [0.6866185665130615, -0.770105242729187], "min" : [0.3133814036846161, -0.8396865129470825], "name" : "TEXCOORD_7"}, {"bufferView" : 0, "byteOffset" : 21312, "componentType" : 5123, "count" : 1296, "type" : "SCALAR", "max" : [1295], "min" : [0]}, {"bufferView" : 6, "byteOffset" : 0, "componentType" : 5126, "count" : 1296, "type" : "VEC3", "max" : [-1.7329046726226807, 63.89870071411133, 8.939515113830566], "min" : [-5.764252185821533, 59.86735534667969, 7.995430946350098], "name" : "POSITION"}, {"bufferView" : 6, "byteOffset" : 12, "componentType" : 5126, "count" : 1296, "type" : "VEC3", "max" : [1.0000044107437134, 1.0000044107437134, 1.0000044107437134], "min" : [-1.0000044107437134, -1.0000044107437134, -1.0000044107437134], "name" : "NORMAL"}, {"bufferView" : 6, "byteOffset" : 24, "componentType" : 5126, "count" : 1296, "type" : "VEC2", "max" : [1, -0], "min" : [0, -1], "name" : "TEXCOORD_0"}, {"bufferView" : 6, "byteOffset" : 32, "componentType" : 5126, "count" : 1296, "type" : "VEC2", "max" : [1, -0], "min" : [0, -1], "name" : "TEXCOORD_1"}, {"bufferView" : 0, "byteOffset" : 23904, "componentType" : 5123, "count" : 1296, "type" : "SCALAR", "max" : [1295], "min" : [0]}, {"bufferView" : 7, "byteOffset" : 0, "componentType" : 5126, "count" : 1296, "type" : "VEC3", "max" : [5.671220302581787, 63.89870071411133, 8.939515113830566], "min" : [1.639872431755066, 59.86735534667969, 7.995430946350098], "name" : "POSITION"}, {"bufferView" : 7, "byteOffset" : 12, "componentType" : 5126, "count" : 1296, "type" : "VEC3", "max" : [1.0000044107437134, 1.0000044107437134, 1.0000044107437134], "min" : [-1.0000044107437134, -1.0000044107437134, -1.0000044107437134], "name" : "NORMAL"}, {"bufferView" : 7, "byteOffset" : 24, "componentType" : 5126, "count" : 1296, "type" : "VEC2", "max" : [1, -0], "min" : [0, -1], "name" : "TEXCOORD_0"}, {"bufferView" : 7, "byteOffset" : 32, "componentType" : 5126, "count" : 1296, "type" : "VEC2", "max" : [1, -0], "min" : [0, -1], "name" : "TEXCOORD_1"}], "asset" : {"generator" : "Aspose.3D 22.1", "version" : "2.0"}, "buffers" : [{"uri" : "data:application/octet-stream;base64,", "byteLength" : 862976}], "bufferViews" : [{"buffer" : 0, "byteOffset" : 0, "byteLength" : 26496, "target" : 34963}, {"buffer" : 0, "byteOffset" : 26500, "byteLength" : 190656, "byteStride" : 48, "target" : 34962}, {"buffer" : 0, "byteOffset" : 217160, "byteLength" : 29952, "byteStride" : 48, "target" : 34962}, {"buffer" : 0, "byteOffset" : 247116, "byteLength" : 25344, "byteStride" : 48, "target" : 34962}, {"buffer" : 0, "byteOffset" : 272464, "byteLength" : 468864, "byteStride" : 88, "target" : 34962}, {"buffer" : 0, "byteOffset" : 741332, "byteLength" : 17952, "byteStride" : 88, "target" : 34962}, {"buffer" : 0, "byteOffset" : 759288, "byteLength" : 51840, "byteStride" : 40, "target" : 34962}, {"buffer" : 0, "byteOffset" : 811132, "byteLength" : 51840, "byteStride" : 40, "target" : 34962}], "images" : [{"uri" : "data:image/jpeg;base64,"}, {"uri" : "data:image/jpeg;base64,"}], "materials" : [{"name" : "", "pbrMetallicRoughness" : {"baseColorFactor" : [0.20000000298023224, 0.20000000298023224, 0.20000000298023224, 1], "metallicFactor" : 0, "roughnessFactor" : 0}, "emissiveFactor" : [1, 1, 1], "alphaMode" : "OPAQUE", "doubleSided" : false}, {"name" : "", "pbrMetallicRoughness" : {"baseColorFactor" : [0.699999988079071, 0.699999988079071, 0.699999988079071, 1], "baseColorTexture" : {"index" : 0, "texCoord" : 0}, "metallicFactor" : 0, "roughnessFactor" : 0}, "emissiveFactor" : [1, 1, 1], "alphaMode" : "OPAQUE", "doubleSided" : false}, {"name" : "", "pbrMetallicRoughness" : {"baseColorFactor" : [0.20000000298023224, 0.20000000298023224, 0.20000000298023224, 1], "metallicFactor" : 0, "roughnessFactor" : 0}, "emissiveFactor" : [1, 1, 1], "alphaMode" : "OPAQUE", "doubleSided" : false}, {"name" : "", "pbrMetallicRoughness" : {"baseColorFactor" : [0.20000000298023224, 0.20000000298023224, 0.20000000298023224, 1], "metallicFactor" : 0, "roughnessFactor" : 0}, "emissiveFactor" : [1, 1, 1], "alphaMode" : "OPAQUE", "doubleSided" : false}, {"name" : "", "pbrMetallicRoughness" : {"baseColorFactor" : [0.699999988079071, 0.699999988079071, 0.699999988079071, 1], "baseColorTexture" : {"index" : 0, "texCoord" : 0}, "metallicFactor" : 0, "roughnessFactor" : 0}, "emissiveFactor" : [1, 1, 1], "alphaMode" : "OPAQUE", "doubleSided" : false}, {"name" : "", "pbrMetallicRoughness" : {"baseColorFactor" : [0.699999988079071, 0.699999988079071, 0.699999988079071, 1], "baseColorTexture" : {"index" : 1, "texCoord" : 0}, "metallicFactor" : 0, "roughnessFactor" : 0}, "emissiveFactor" : [1, 1, 1], "alphaMode" : "OPAQUE", "doubleSided" : false}, {"name" : "", "pbrMetallicRoughness" : {"baseColorFactor" : [0.699999988079071, 0.699999988079071, 0.699999988079071, 1], "baseColorTexture" : {"index" : 1, "texCoord" : 0}, "metallicFactor" : 0, "roughnessFactor" : 0}, "emissiveFactor" : [1, 1, 1], "alphaMode" : "OPAQUE", "doubleSided" : false}], "meshes" : [{"primitives" : [{"attributes" : {"POSITION" : 1, "NORMAL" : 2, "TEXCOORD_0" : 3, "TEXCOORD_1" : 4, "TEXCOORD_2" : 5}, "indices" : 0, "material" : 0, "mode" : 4}, {"attributes" : {"POSITION" : 7, "NORMAL" : 8, "TEXCOORD_0" : 9, "TEXCOORD_1" : 10, "TEXCOORD_2" : 11}, "indices" : 6, "material" : 1, "mode" : 4}, {"attributes" : {"POSITION" : 13, "NORMAL" : 14, "TEXCOORD_0" : 15, "TEXCOORD_1" : 16, "TEXCOORD_2" : 17}, "indices" : 12, "material" : 2, "mode" : 4}], "name" : ""}, {"primitives" : [{"attributes" : {"POSITION" : 19, "NORMAL" : 20, "TEXCOORD_0" : 21, "TEXCOORD_1" : 22, "TEXCOORD_2" : 23, "TEXCOORD_3" : 24, "TEXCOORD_4" : 25, "TEXCOORD_5" : 26, "TEXCOORD_6" : 27, "TEXCOORD_7" : 28}, "indices" : 18, "material" : 3, "mode" : 4}, {"attributes" : {"POSITION" : 30, "NORMAL" : 31, "TEXCOORD_0" : 32, "TEXCOORD_1" : 33, "TEXCOORD_2" : 34, "TEXCOORD_3" : 35, "TEXCOORD_4" : 36, "TEXCOORD_5" : 37, "TEXCOORD_6" : 38, "TEXCOORD_7" : 39}, "indices" : 29, "material" : 4, "mode" : 4}], "name" : "_ncl1_1"}, {"primitives" : [{"attributes" : {"POSITION" : 41, "NORMAL" : 42, "TEXCOORD_0" : 43, "TEXCOORD_1" : 44}, "indices" : 40, "material" : 5, "mode" : 4}], "name" : "_ncl1_2"}, {"primitives" : [{"attributes" : {"POSITION" : 46, "NORMAL" : 47, "TEXCOORD_0" : 48, "TEXCOORD_1" : 49}, "indices" : 45, "material" : 6, "mode" : 4}], "name" : "_ncl1_3"}], "nodes" : [{"mesh" : 1, "name" : "head_v5_parts3"}, {"mesh" : 2, "name" : "head_v5_parts4"}, {"mesh" : 3, "name" : "head_v5_parts5"}, {"children" : [0, 1, 2], "mesh" : 0, "name" : "Head_v5"}], "samplers" : [{"magFilter" : 9729, "minFilter" : 9729, "wrapS" : 33071, "wrapT" : 33071}, {"magFilter" : 9729, "minFilter" : 9729, "wrapS" : 33071, "wrapT" : 33071}], "scene" : 0, "scenes" : [{"nodes" : [3]}], "textures" : [{"sampler" : 0, "source" : 0}, {"sampler" : 1, "source" : 1}]}