{"accessors" : [{"bufferView" : 0, "byteOffset" : 0, "componentType" : 5123, "count" : 7326, "type" : "SCALAR", "max" : [7325], "min" : [0]}, {"bufferView" : 1, "byteOffset" : 0, "componentType" : 5126, "count" : 7326, "type" : "VEC3", "max" : [10.291728973388672, 67.01908874511719, 13.20209789276123], "min" : [-9.759289741516113, 39.053688049316406, -8.75513744354248], "name" : "POSITION"}, {"bufferView" : 1, "byteOffset" : 12, "componentType" : 5126, "count" : 7326, "type" : "VEC3", "max" : [1.0000044107437134, 1.0000044107437134, 1.0000044107437134], "min" : [-1.0000044107437134, -1.0000044107437134, -1.0000044107437134], "name" : "NORMAL"}, {"bufferView" : 1, "byteOffset" : 24, "componentType" : 5126, "count" : 7326, "type" : "VEC2", "max" : [1, -0], "min" : [0, -1], "name" : "TEXCOORD_0"}, {"bufferView" : 1, "byteOffset" : 32, "componentType" : 5126, "count" : 7326, "type" : "VEC2", "max" : [1.1518107652664185, -0.6105047464370728], "min" : [-0.1471649408340454, -0.9583019018173218], "name" : "TEXCOORD_1"}, {"bufferView" : 1, "byteOffset" : 40, "componentType" : 5126, "count" : 7326, "type" : "VEC2", "max" : [1.1518107652664185, -0.6105047464370728], "min" : [-0.1471649408340454, -0.9583019018173218], "name" : "TEXCOORD_2"}, {"bufferView" : 1, "byteOffset" : 48, "componentType" : 5126, "count" : 7326, "type" : "VEC2", "max" : [0.812521755695343, -0.186733216047287], "min" : [0.18747824430465698, -0.9263275861740112], "name" : "TEXCOORD_3"}, {"bufferView" : 1, "byteOffset" : 56, "componentType" : 5126, "count" : 7326, "type" : "VEC2", "max" : [0.812521755695343, -0.186733216047287], "min" : [0.18747824430465698, -0.9263275861740112], "name" : "TEXCOORD_4"}, {"bufferView" : 1, "byteOffset" : 64, "componentType" : 5126, "count" : 7326, "type" : "VEC2", "max" : [0.812521755695343, -0.186733216047287], "min" : [0.18747824430465698, -0.9263275861740112], "name" : "TEXCOORD_5"}, {"bufferView" : 0, "byteOffset" : 14652, "componentType" : 5123, "count" : 102, "type" : "SCALAR", "max" : [101], "min" : [0]}, {"bufferView" : 2, "byteOffset" : 0, "componentType" : 5126, "count" : 102, "type" : "VEC3", "max" : [7.43818998336792, 60.87028884887695, 12.092065811157227], "min" : [-6.905750751495361, 57.122901916503906, 10.065861701965332], "name" : "POSITION"}, {"bufferView" : 2, "byteOffset" : 12, "componentType" : 5126, "count" : 102, "type" : "VEC3", "max" : [0.8133745193481445, 0.7275633215904236, 0.9942169785499573], "min" : [-0.5585781335830688, -0.4653998911380768, 0.3344007730484009], "name" : "NORMAL"}, {"bufferView" : 2, "byteOffset" : 24, "componentType" : 5126, "count" : 102, "type" : "VEC2", "max" : [0.9543470144271851, -0.24624399840831757], "min" : [0.9037629961967468, -0.75], "name" : "TEXCOORD_0"}, {"bufferView" : 2, "byteOffset" : 32, "componentType" : 5126, "count" : 102, "type" : "VEC2", "max" : [0.5853374600410461, -0.8352259397506714], "min" : [0.41105785965919495, -0.8818310499191284], "name" : "TEXCOORD_1"}, {"bufferView" : 2, "byteOffset" : 40, "componentType" : 5126, "count" : 102, "type" : "VEC2", "max" : [0.5853374600410461, -0.8352259397506714], "min" : [0.41105785965919495, -0.8818310499191284], "name" : "TEXCOORD_2"}, {"bufferView" : 2, "byteOffset" : 48, "componentType" : 5126, "count" : 102, "type" : "VEC2", "max" : [0.6228540539741516, -0.8169326186180115], "min" : [0.3707226514816284, -0.8621839880943298], "name" : "TEXCOORD_3"}, {"bufferView" : 2, "byteOffset" : 56, "componentType" : 5126, "count" : 102, "type" : "VEC2", "max" : [0.6228540539741516, -0.8169326186180115], "min" : [0.3707226514816284, -0.8621839880943298], "name" : "TEXCOORD_4"}, {"bufferView" : 2, "byteOffset" : 64, "componentType" : 5126, "count" : 102, "type" : "VEC2", "max" : [0.6228540539741516, -0.8169326186180115], "min" : [0.3707226514816284, -0.8621839880943298], "name" : "TEXCOORD_5"}, {"bufferView" : 0, "byteOffset" : 14856, "componentType" : 5123, "count" : 1722, "type" : "SCALAR", "max" : [1721], "min" : [0]}, {"bufferView" : 3, "byteOffset" : 0, "componentType" : 5126, "count" : 1722, "type" : "VEC3", "max" : [10.374759674072266, 65.58548736572266, 8.728130340576172], "min" : [-9.842320442199707, 55.69014358520508, -4.640876770019531], "name" : "POSITION"}, {"bufferView" : 3, "byteOffset" : 12, "componentType" : 5126, "count" : 1722, "type" : "VEC3", "max" : [1.0000044107437134, 1.0000040531158447, 0.9999952912330627], "min" : [-1.0000044107437134, -1.0000044107437134, -1.0000014305114746], "name" : "NORMAL"}, {"bufferView" : 3, "byteOffset" : 24, "componentType" : 5126, "count" : 1722, "type" : "VEC2", "max" : [1, -0], "min" : [0, -1], "name" : "TEXCOORD_0"}, {"bufferView" : 3, "byteOffset" : 32, "componentType" : 5126, "count" : 1722, "type" : "VEC2", "max" : [0.812346339225769, -0.8174072504043579], "min" : [0.19003711640834808, -0.9404725432395935], "name" : "TEXCOORD_1"}, {"bufferView" : 3, "byteOffset" : 40, "componentType" : 5126, "count" : 1722, "type" : "VEC2", "max" : [0.812346339225769, -0.8174072504043579], "min" : [0.19003711640834808, -0.9404725432395935], "name" : "TEXCOORD_2"}, {"bufferView" : 3, "byteOffset" : 48, "componentType" : 5126, "count" : 1722, "type" : "VEC2", "max" : [0.6985877156257629, -0.3561513423919678], "min" : [0.30141228437423706, -0.9191220998764038], "name" : "TEXCOORD_3"}, {"bufferView" : 3, "byteOffset" : 56, "componentType" : 5126, "count" : 1722, "type" : "VEC2", "max" : [0.6985877156257629, -0.3561513423919678], "min" : [0.30141228437423706, -0.9191220998764038], "name" : "TEXCOORD_4"}, {"bufferView" : 3, "byteOffset" : 64, "componentType" : 5126, "count" : 1722, "type" : "VEC2", "max" : [0.6985877156257629, -0.3561513423919678], "min" : [0.30141228437423706, -0.9191220998764038], "name" : "TEXCOORD_5"}, {"bufferView" : 0, "byteOffset" : 18300, "componentType" : 5123, "count" : 480, "type" : "SCALAR", "max" : [479], "min" : [0]}, {"bufferView" : 4, "byteOffset" : 0, "componentType" : 5126, "count" : 480, "type" : "VEC3", "max" : [-2.0372154712677, 60.445369720458984, 11.794806480407715], "min" : [-5.013097763061523, 57.469486236572266, 10.273797035217285], "name" : "POSITION"}, {"bufferView" : 4, "byteOffset" : 12, "componentType" : 5126, "count" : 480, "type" : "VEC3", "max" : [1.0000044107437134, 1.0000044107437134, 1.0000044107437134], "min" : [-1.0000044107437134, -1.0000044107437134, -1.0000044107437134], "name" : "NORMAL"}, {"bufferView" : 4, "byteOffset" : 24, "componentType" : 5126, "count" : 480, "type" : "VEC2", "max" : [1, -0], "min" : [0, -1], "name" : "TEXCOORD_0"}, {"bufferView" : 0, "byteOffset" : 19260, "componentType" : 5123, "count" : 480, "type" : "SCALAR", "max" : [479], "min" : [0]}, {"bufferView" : 5, "byteOffset" : 0, "componentType" : 5126, "count" : 480, "type" : "VEC3", "max" : [5.444589138031006, 60.445369720458984, 11.794806480407715], "min" : [2.4687066078186035, 57.469486236572266, 10.273797035217285], "name" : "POSITION"}, {"bufferView" : 5, "byteOffset" : 12, "componentType" : 5126, "count" : 480, "type" : "VEC3", "max" : [1.0000044107437134, 1.0000044107437134, 1.0000044107437134], "min" : [-1.0000044107437134, -1.0000044107437134, -1.0000044107437134], "name" : "NORMAL"}, {"bufferView" : 5, "byteOffset" : 24, "componentType" : 5126, "count" : 480, "type" : "VEC2", "max" : [1, -0], "min" : [0, -1], "name" : "TEXCOORD_0"}], "asset" : {"generator" : "Aspose.3D 22.1", "version" : "2.0"}, "buffers" : [{"uri" : "data:application/octet-stream;base64,", "byteLength" : 709764}], "bufferViews" : [{"buffer" : 0, "byteOffset" : 0, "byteLength" : 20220, "target" : 34963}, {"buffer" : 0, "byteOffset" : 20224, "byteLength" : 527472, "byteStride" : 72, "target" : 34962}, {"buffer" : 0, "byteOffset" : 547700, "byteLength" : 7344, "byteStride" : 72, "target" : 34962}, {"buffer" : 0, "byteOffset" : 555048, "byteLength" : 123984, "byteStride" : 72, "target" : 34962}, {"buffer" : 0, "byteOffset" : 679036, "byteLength" : 15360, "byteStride" : 32, "target" : 34962}, {"buffer" : 0, "byteOffset" : 694400, "byteLength" : 15360, "byteStride" : 32, "target" : 34962}], "images" : [{"uri" : "data:image/jpeg;base64,"}, {"uri" : "data:image/jpeg;base64,"}], "materials" : [{"name" : "", "pbrMetallicRoughness" : {"baseColorFactor" : [0.20000000298023224, 0.20000000298023224, 0.20000000298023224, 1], "metallicFactor" : 0, "roughnessFactor" : 0}, "emissiveFactor" : [1, 1, 1], "alphaMode" : "OPAQUE", "doubleSided" : false}, {"name" : "", "pbrMetallicRoughness" : {"baseColorFactor" : [0.20000000298023224, 0.20000000298023224, 0.20000000298023224, 1], "metallicFactor" : 0, "roughnessFactor" : 0}, "emissiveFactor" : [1, 1, 1], "alphaMode" : "OPAQUE", "doubleSided" : false}, {"name" : "", "pbrMetallicRoughness" : {"baseColorFactor" : [0.699999988079071, 0.699999988079071, 0.699999988079071, 1], "baseColorTexture" : {"index" : 0, "texCoord" : 0}, "metallicFactor" : 0, "roughnessFactor" : 0}, "emissiveFactor" : [1, 1, 1], "alphaMode" : "OPAQUE", "doubleSided" : false}, {"name" : "", "pbrMetallicRoughness" : {"baseColorFactor" : [0.699999988079071, 0.699999988079071, 0.699999988079071, 1], "baseColorTexture" : {"index" : 1, "texCoord" : 0}, "metallicFactor" : 0, "roughnessFactor" : 0}, "emissiveFactor" : [1, 1, 1], "alphaMode" : "OPAQUE", "doubleSided" : false}, {"name" : "", "pbrMetallicRoughness" : {"baseColorFactor" : [0.699999988079071, 0.699999988079071, 0.699999988079071, 1], "baseColorTexture" : {"index" : 1, "texCoord" : 0}, "metallicFactor" : 0, "roughnessFactor" : 0}, "emissiveFactor" : [1, 1, 1], "alphaMode" : "OPAQUE", "doubleSided" : false}], "meshes" : [{"primitives" : [{"attributes" : {"POSITION" : 1, "NORMAL" : 2, "TEXCOORD_0" : 3, "TEXCOORD_1" : 4, "TEXCOORD_2" : 5, "TEXCOORD_3" : 6, "TEXCOORD_4" : 7, "TEXCOORD_5" : 8}, "indices" : 0, "material" : 0, "mode" : 4}, {"attributes" : {"POSITION" : 10, "NORMAL" : 11, "TEXCOORD_0" : 12, "TEXCOORD_1" : 13, "TEXCOORD_2" : 14, "TEXCOORD_3" : 15, "TEXCOORD_4" : 16, "TEXCOORD_5" : 17}, "indices" : 9, "material" : 1, "mode" : 4}, {"attributes" : {"POSITION" : 19, "NORMAL" : 20, "TEXCOORD_0" : 21, "TEXCOORD_1" : 22, "TEXCOORD_2" : 23, "TEXCOORD_3" : 24, "TEXCOORD_4" : 25, "TEXCOORD_5" : 26}, "indices" : 18, "material" : 2, "mode" : 4}], "name" : ""}, {"primitives" : [{"attributes" : {"POSITION" : 28, "NORMAL" : 29, "TEXCOORD_0" : 30}, "indices" : 27, "material" : 3, "mode" : 4}], "name" : "_ncl1_1"}, {"primitives" : [{"attributes" : {"POSITION" : 32, "NORMAL" : 33, "TEXCOORD_0" : 34}, "indices" : 31, "material" : 4, "mode" : 4}], "name" : "_ncl1_2"}], "nodes" : [{"mesh" : 1, "name" : "cylinder4"}, {"mesh" : 2, "name" : "cylinder3"}, {"children" : [0, 1], "mesh" : 0, "name" : "Head_v4"}], "samplers" : [{"magFilter" : 9729, "minFilter" : 9729, "wrapS" : 33071, "wrapT" : 33071}, {"magFilter" : 9729, "minFilter" : 9729, "wrapS" : 33071, "wrapT" : 33071}], "scene" : 0, "scenes" : [{"nodes" : [2]}], "textures" : [{"sampler" : 0, "source" : 0}, {"sampler" : 1, "source" : 1}]}