{"accessors" : [{"bufferView" : 0, "byteOffset" : 0, "componentType" : 5123, "count" : 5052, "type" : "SCALAR", "max" : [5051], "min" : [0]}, {"bufferView" : 1, "byteOffset" : 0, "componentType" : 5126, "count" : 5052, "type" : "VEC3", "max" : [16.778091430664062, 71.94656372070312, 15.85576343536377], "min" : [-16.252172470092773, 49.524696350097656, -9.980563163757324], "name" : "POSITION"}, {"bufferView" : 1, "byteOffset" : 12, "componentType" : 5126, "count" : 5052, "type" : "VEC3", "max" : [1.0000044107437134, 1.0000044107437134, 1.0000044107437134], "min" : [-1.0000044107437134, -1.0000044107437134, -1.0000044107437134], "name" : "NORMAL"}, {"bufferView" : 1, "byteOffset" : 24, "componentType" : 5126, "count" : 5052, "type" : "VEC2", "max" : [0.8924405574798584, -0.109377920627594], "min" : [0.1075594425201416, -0.8924405574798584], "name" : "TEXCOORD_0"}, {"bufferView" : 1, "byteOffset" : 32, "componentType" : 5126, "count" : 5052, "type" : "VEC2", "max" : [1.1214783191680908, -0.6786455512046814], "min" : [-0.04306763410568237, -0.976573646068573], "name" : "TEXCOORD_1"}, {"bufferView" : 1, "byteOffset" : 40, "componentType" : 5126, "count" : 5052, "type" : "VEC2", "max" : [1.1214783191680908, -0.6786455512046814], "min" : [-0.04306763410568237, -0.976573646068573], "name" : "TEXCOORD_2"}, {"bufferView" : 1, "byteOffset" : 48, "componentType" : 5126, "count" : 5052, "type" : "VEC2", "max" : [0.8812189102172852, -0.12527838349342346], "min" : [0.11878108978271484, -0.9541746377944946], "name" : "TEXCOORD_3"}, {"bufferView" : 1, "byteOffset" : 56, "componentType" : 5126, "count" : 5052, "type" : "VEC2", "max" : [0.8812189102172852, -0.12527838349342346], "min" : [0.11878108978271484, -0.9541746377944946], "name" : "TEXCOORD_4"}, {"bufferView" : 1, "byteOffset" : 64, "componentType" : 5126, "count" : 5052, "type" : "VEC2", "max" : [0.8812189102172852, -0.12527838349342346], "min" : [0.11878108978271484, -0.9541746377944946], "name" : "TEXCOORD_5"}, {"bufferView" : 0, "byteOffset" : 10104, "componentType" : 5123, "count" : 240, "type" : "SCALAR", "max" : [239], "min" : [0]}, {"bufferView" : 2, "byteOffset" : 0, "componentType" : 5126, "count" : 240, "type" : "VEC3", "max" : [15.354660034179688, 63.29681396484375, 1.4914772510528564], "min" : [-15.1621732711792, 53.928733825683594, -8.845695495605469], "name" : "POSITION"}, {"bufferView" : 2, "byteOffset" : 12, "componentType" : 5126, "count" : 240, "type" : "VEC3", "max" : [0.9967347383499146, 0.9995169043540955, 0.9977410435676575], "min" : [-0.9967347383499146, -0.9980711936950684, -0.9916163086891174], "name" : "NORMAL"}, {"bufferView" : 2, "byteOffset" : 24, "componentType" : 5126, "count" : 240, "type" : "VEC2", "max" : [0.8363028764724731, -0.12187257409095764], "min" : [0.18447670340538025, -0.8781274557113647], "name" : "TEXCOORD_0"}, {"bufferView" : 2, "byteOffset" : 32, "componentType" : 5126, "count" : 240, "type" : "VEC2", "max" : [0.24602071940898895, -0.7371636629104614], "min" : [-0.001201629638671875, -0.8616410493850708], "name" : "TEXCOORD_1"}, {"bufferView" : 2, "byteOffset" : 40, "componentType" : 5126, "count" : 240, "type" : "VEC2", "max" : [0.24602071940898895, -0.7371636629104614], "min" : [-0.001201629638671875, -0.8616410493850708], "name" : "TEXCOORD_2"}, {"bufferView" : 2, "byteOffset" : 48, "componentType" : 5126, "count" : 240, "type" : "VEC2", "max" : [0.7939198613166809, -0.1499376893043518], "min" : [0.20518317818641663, -0.8500623106956482], "name" : "TEXCOORD_3"}, {"bufferView" : 2, "byteOffset" : 56, "componentType" : 5126, "count" : 240, "type" : "VEC2", "max" : [0.7939198613166809, -0.1499376893043518], "min" : [0.20518317818641663, -0.8500623106956482], "name" : "TEXCOORD_4"}, {"bufferView" : 2, "byteOffset" : 64, "componentType" : 5126, "count" : 240, "type" : "VEC2", "max" : [0.7939198613166809, -0.1499376893043518], "min" : [0.20518317818641663, -0.8500623106956482], "name" : "TEXCOORD_5"}, {"bufferView" : 0, "byteOffset" : 10584, "componentType" : 5123, "count" : 6, "type" : "SCALAR", "max" : [5], "min" : [0]}, {"bufferView" : 3, "byteOffset" : 0, "componentType" : 5126, "count" : 6, "type" : "VEC3", "max" : [12.704358100891113, 67.19589233398438, 11.426907539367676], "min" : [-12.178439140319824, 52.42034912109375, 11.371857643127441], "name" : "POSITION"}, {"bufferView" : 3, "byteOffset" : 12, "componentType" : 5126, "count" : 6, "type" : "VEC3", "max" : [0.015152955427765846, 0.03316458314657211, 1.0000001192092896], "min" : [-0.015152955427765846, -0.0029021163936704397, 0.9994511604309082], "name" : "NORMAL"}, {"bufferView" : 3, "byteOffset" : 24, "componentType" : 5126, "count" : 6, "type" : "VEC2", "max" : [0.5828801989555359, -0.5694704055786133], "min" : [0.41475921869277954, -0.7247632145881653], "name" : "TEXCOORD_0"}, {"bufferView" : 3, "byteOffset" : 32, "componentType" : 5126, "count" : 6, "type" : "VEC2", "max" : [0.6467890739440918, -0.7171211838722229], "min" : [0.35434553027153015, -0.9134496450424194], "name" : "TEXCOORD_1"}, {"bufferView" : 3, "byteOffset" : 40, "componentType" : 5126, "count" : 6, "type" : "VEC2", "max" : [0.6467890739440918, -0.7171211838722229], "min" : [0.35434553027153015, -0.9134496450424194], "name" : "TEXCOORD_2"}, {"bufferView" : 3, "byteOffset" : 48, "componentType" : 5126, "count" : 6, "type" : "VEC2", "max" : [0.735374927520752, -0.7022584080696106], "min" : [0.26807844638824463, -0.8928841352462769], "name" : "TEXCOORD_3"}, {"bufferView" : 3, "byteOffset" : 56, "componentType" : 5126, "count" : 6, "type" : "VEC2", "max" : [0.735374927520752, -0.7022584080696106], "min" : [0.26807844638824463, -0.8928841352462769], "name" : "TEXCOORD_4"}, {"bufferView" : 3, "byteOffset" : 64, "componentType" : 5126, "count" : 6, "type" : "VEC2", "max" : [0.735374927520752, -0.7022584080696106], "min" : [0.26807844638824463, -0.8928841352462769], "name" : "TEXCOORD_5"}], "asset" : {"generator" : "Aspose.3D 22.1", "version" : "2.0"}, "buffers" : [{"uri" : "data:application/octet-stream;base64,", "byteLength" : 392068}], "bufferViews" : [{"buffer" : 0, "byteOffset" : 0, "byteLength" : 10596, "target" : 34963}, {"buffer" : 0, "byteOffset" : 10600, "byteLength" : 363744, "byteStride" : 72, "target" : 34962}, {"buffer" : 0, "byteOffset" : 374348, "byteLength" : 17280, "byteStride" : 72, "target" : 34962}, {"buffer" : 0, "byteOffset" : 391632, "byteLength" : 432, "byteStride" : 72, "target" : 34962}], "images" : [{"uri" : "data:image/jpeg;base64,"}, {"uri" : "data:image/jpeg;base64,"}], "materials" : [{"name" : "", "pbrMetallicRoughness" : {"baseColorFactor" : [0.20000000298023224, 0.20000000298023224, 0.20000000298023224, 1], "metallicFactor" : 0, "roughnessFactor" : 0}, "emissiveFactor" : [1, 1, 1], "alphaMode" : "OPAQUE", "doubleSided" : false}, {"name" : "", "pbrMetallicRoughness" : {"baseColorFactor" : [0.699999988079071, 0.699999988079071, 0.699999988079071, 1], "baseColorTexture" : {"index" : 0, "texCoord" : 0}, "metallicFactor" : 0, "roughnessFactor" : 0}, "emissiveFactor" : [1, 1, 1], "alphaMode" : "OPAQUE", "doubleSided" : false}, {"name" : "", "pbrMetallicRoughness" : {"baseColorFactor" : [0.699999988079071, 0.699999988079071, 0.699999988079071, 1], "baseColorTexture" : {"index" : 1, "texCoord" : 0}, "metallicFactor" : 0, "roughnessFactor" : 0}, "emissiveFactor" : [1, 1, 1], "alphaMode" : "OPAQUE", "doubleSided" : false}], "meshes" : [{"primitives" : [{"attributes" : {"POSITION" : 1, "NORMAL" : 2, "TEXCOORD_0" : 3, "TEXCOORD_1" : 4, "TEXCOORD_2" : 5, "TEXCOORD_3" : 6, "TEXCOORD_4" : 7, "TEXCOORD_5" : 8}, "indices" : 0, "material" : 0, "mode" : 4}, {"attributes" : {"POSITION" : 10, "NORMAL" : 11, "TEXCOORD_0" : 12, "TEXCOORD_1" : 13, "TEXCOORD_2" : 14, "TEXCOORD_3" : 15, "TEXCOORD_4" : 16, "TEXCOORD_5" : 17}, "indices" : 9, "material" : 1, "mode" : 4}, {"attributes" : {"POSITION" : 19, "NORMAL" : 20, "TEXCOORD_0" : 21, "TEXCOORD_1" : 22, "TEXCOORD_2" : 23, "TEXCOORD_3" : 24, "TEXCOORD_4" : 25, "TEXCOORD_5" : 26}, "indices" : 18, "material" : 2, "mode" : 4}], "name" : ""}], "nodes" : [{"mesh" : 0, "name" : "Head_v2"}], "samplers" : [{"magFilter" : 9729, "minFilter" : 9729, "wrapS" : 33071, "wrapT" : 33071}, {"magFilter" : 9729, "minFilter" : 9729, "wrapS" : 33071, "wrapT" : 33071}], "scene" : 0, "scenes" : [{"nodes" : [0]}], "textures" : [{"sampler" : 0, "source" : 0}, {"sampler" : 1, "source" : 1}]}