<svg viewBox="0 0 300 288" fill="none" xmlns="http://www.w3.org/2000/svg">
  <path fill-rule="evenodd" clip-rule="evenodd" d="M150 13.3125c-75.6875 0-136.9625 60.9625-136.9625 136.0375 0 55.125 33.0375 102.563 80.5875 123.9 4.975 2.238 9.838 1.35 13.638-1.5a17.259 17.259 0 0 0 4.949-6.138 17.2477 17.2477 0 0 0 1.7-7.699v-7.126l-16.962-2.3a5.2985 5.2985 0 0 1-.375-.062c-9.35-1.825-15.6625-5.113-20.2875-9.85-3.8875-3.988-6.2625-8.762-8.275-12.812l-.7-1.413a145.5606 145.5606 0 0 0-6.0875-11.375c-1.6875-2.675-3-4.05-4.3-4.913-3.3-2.187-6.475-5.9-6.475-10.537a8.9999 8.9999 0 0 1 3.25-7 10.5459 10.5459 0 0 1 6.825-2.275c2.775 0 5.3875.85 7.5625 1.825 2.225 1 4.4375 2.325 6.5 3.7 5.025 3.35 9.975 7.313 14.1625 12.2 4.3625 5.075 7.45 8.3 12.1 8.962 3.825.55 7.725.563 10.762.425a32.0056 32.0056 0 0 1 2.076-6.999c-3.71-.866-7.37-1.935-10.963-3.201-8.175-2.9-17.2875-7.412-23.4125-14.249-6.725-7.525-10.8875-14.238-13.2125-22.088-2.2625-7.65-2.6375-15.937-2.6375-26.137 0-15.625 6.7625-28.788 11.8375-35.776a108.174 108.174 0 0 1-4.1875-18.762 43.936 43.936 0 0 1 .0125-12.1c.625-3.6625 2.1875-8.1625 6.3-10.875 3.9625-2.6375 8.6125-2.525 12.2375-1.85 3.7625.7125 7.675 2.275 11.2745 4.0625 5.863 2.9 11.688 6.775 16.051 10.0625 7.525-2.2125 20.837-5.0625 32.875-5.325h.274c12.05.2625 24.763 3.1125 32.101 5.3125 4.375-3.275 10.187-7.1625 16.037-10.05 3.6-1.7875 7.5-3.35 11.275-4.0625 3.625-.675 8.275-.7875 12.25 1.8375 4.1 2.725 5.675 7.225 6.287 10.8875.638 3.8125.488 8.075 0 12.1a108.216 108.216 0 0 1-4.174 18.762c5.075 7 11.837 20.163 11.837 35.776 0 10.2-.375 18.487-2.625 26.124-2.338 7.875-6.5 14.576-13.225 22.101-6.125 6.837-15.238 11.349-23.413 14.249a105.4108 105.4108 0 0 1-13.275 3.713c1.538 4.65 2.088 8.412 2.088 10.575v38.625c0 5.875 2.738 10.888 6.625 13.813 3.775 2.862 8.625 3.75 13.6 1.575 48-21.15 81.425-68.713 81.425-124.125 0-75.063-61.25-136.0255-136.95-136.0255ZM118.45 227.875c-3.25.462-.012 0-.012 0h-.038l-.1.025-.362.05a82.29 82.29 0 0 1-5.588.463c-4.449.231-8.909.051-13.325-.538-9.8875-1.4-15.9-8.4-19.7875-12.95l-.375-.425a45.104 45.104 0 0 0-4.0875-4.163c1.2875 2.375 2.625 5.026 4.0625 7.876l.125.25.6375 1.3c2.1875 4.35 3.625 7.249 6.0125 9.674 2.325 2.375 5.95 4.676 13.275 6.126l22.4245 3.037c1.567.212 3.003.985 4.042 2.176a6.5203 6.5203 0 0 1 1.608 4.299v12.838c0 10-4.687 18.912-11.875 24.312a26.088 26.088 0 0 1-12.983 5.202 26.0871 26.0871 0 0 1-13.804-2.252C36.275 261.838 0 209.875 0 149.35 0 66.95 67.2125.25 150 .25c82.788 0 150 66.7 150 149.1 0 60.838-36.737 112.937-89.212 136.075a26.1276 26.1276 0 0 1-13.784 2.157 26.123 26.123 0 0 1-12.929-5.245 30.3066 30.3066 0 0 1-8.763-10.748 30.3238 30.3238 0 0 1-3.062-13.527v-38.625c0-.875-.612-5.925-4.025-12.712a6.5563 6.5563 0 0 1-.692-3.034 6.555 6.555 0 0 1 .787-3.011 6.5453 6.5453 0 0 1 5.005-3.392 89.8734 89.8734 0 0 0 18.8-4.451c7.425-2.625 14.087-6.224 18.05-10.649 5.887-6.575 8.825-11.626 10.438-17.088 1.675-5.663 2.099-12.25 2.099-22.412 0-14.263-7.5-26.25-10.95-30.113a6.5289 6.5289 0 0 1-1.545-3.091c-.229-1.15-.144-2.34.245-3.446a97.774 97.774 0 0 0 4.688-19.4255c.4-3.4375.425-6.3125.075-8.3875a5.7072 5.7072 0 0 0-.675-2.1625 6.0718 6.0718 0 0 0-2.587.1125c-2.125.4-4.838 1.4-7.913 2.925-6.125 3.025-12.5 7.5-16.45 10.7a6.4994 6.4994 0 0 1-6.312 1.0625A116.3311 116.3311 0 0 0 150 85.2c-12.587.3-27.112 3.875-32.075 5.6625a6.4995 6.4995 0 0 1-3.296.2997 6.5075 6.5075 0 0 1-3.017-1.3622 97.1647 97.1647 0 0 0-16.4495-10.7 32.5874 32.5874 0 0 0-7.925-2.925 6.076 6.076 0 0 0-2.575-.1125 5.6996 5.6996 0 0 0-.675 2.1625c-.35 2.075-.325 4.95.075 8.3875A98.6378 98.6378 0 0 0 88.75 106.038c.7875 2.25.3 4.75-1.3 6.537-3.45 3.863-10.95 15.85-10.95 30.113 0 10.15.425 16.749 2.1 22.412 1.625 5.462 4.55 10.5 10.425 17.088 3.975 4.425 10.625 8.024 18.063 10.649a89.8814 89.8814 0 0 0 18.787 4.451c1.318.141 2.561.68 3.564 1.545a6.5283 6.5283 0 0 1 2.054 3.298c.334 1.283.27 2.636-.185 3.881a6.5253 6.5253 0 0 1-2.358 3.088c-2.063 1.475-3.425 4.125-4.188 7.188a24.2698 24.2698 0 0 0-.699 4.812v.238a6.5466 6.5466 0 0 1-1.577 4.324 6.5415 6.5415 0 0 1-4.036 2.213Z" fill="#000"/>
</svg>
